<svg version="1.2" xmlns="http://www.w3.org/2000/svg" viewBox="0 0 151 151" width="151" height="151"><defs><clipPath clipPathUnits="userSpaceOnUse" id="cp1"><path d="m-1520-672h1920v1080h-1920z"/></clipPath></defs><style>.a{fill:#fff}.b{fill:#8d7849}</style><g clip-path="url(#cp1)"><path class="a" d="m0.5 0.5h5.2v10.3 10.4 15.5h-5.2v-15.5-10.4z"/><path class="a" d="m0.5 41.9h5.2v10.3h-5.2z"/><path class="a" d="m0.5 57.4h5.2v10.3h-5.2z"/><path class="a" d="m0.5 93.5h5.2v5.2h-5.2z"/><path class="a" d="m0.5 114.2h5.2v36.2h-5.2z"/><path class="a" d="m5.7 67.7h5.2v5.2h5.1v15.5h-5.1v5.1h-5.2z"/><path class="a" d="m10.9 103.9v-10.4h5.1 5.2v5.2h-5.2v5.2h5.2v5.1h-5.2v-5.1h-5.1v5.1h-5.2v-5.1z"/><path class="a" d="m16 0.5h5.2v5.2h-5.2-5.1-5.2v-5.2h5.2z"/><path class="b" d="m16 10.8h5.2v10.4 5.2h-5.2-5.1v-5.2-10.4z"/><path class="a" d="m16 31.5h5.2v5.2h-5.2-5.1-5.2v-5.2h5.2z"/><path class="a" d="m16 41.9h5.2v5.1h-5.2-5.1v-5.1z"/><path class="a" d="m16 52.2h5.2v5.2h-5.2v5.1h5.2v5.2h-5.2-5.1v-5.2h-5.2v-10.3h5.2z"/><path class="a" d="m16 114.2h5.2v5.2h-5.2-5.1-5.2v-5.2h5.2z"/><path class="b" d="m16 124.5h5.2v15.6h-5.2-5.1v-15.6z"/><path class="a" d="m16 145.2h5.2v5.2h-5.2-5.1-5.2v-5.2h5.2z"/><path class="b" d="m26.4 26.4h-5.2v-5.2-10.4h5.2v10.4z"/><path class="a" d="m26.4 72.9v-5.2h5.2v5.2h5.1v5.1h-5.1-5.2v5.2h5.2 5.1v5.2h-5.1-5.2v10.3h-5.2v-25.8z"/><path class="b" d="m21.2 124.5h5.2v15.6h-5.2z"/><path class="a" d="m31.6 0.5h5.1v10.3 10.4 15.5h-5.1-5.2-5.2v-5.2h5.2 5.2v-10.3-10.4-5.1h-5.2-5.2v-5.2h5.2z"/><path class="a" d="m31.6 41.9h5.1v5.1h-5.1v5.2h5.1v5.2h-5.1-5.2v10.3h-5.2v-20.7h5.2v-5.1z"/><path class="a" d="m31.6 103.9h5.1v5.1h-5.1-5.2-5.2v-5.1h5.2z"/><path class="a" d="m31.6 114.2h5.1v36.2h-5.1-5.2-5.2v-5.2h5.2 5.2v-25.8h-5.2-5.2v-5.2h5.2z"/><path class="a" d="m31.6 62.5h5.1v5.2h-5.1z"/><path class="a" d="m31.6 93.5h5.1v5.2h-5.1z"/><path class="a" d="m36.7 67.7h5.2v5.2h-5.2z"/><path class="a" d="m41.9 78h5.2v5.2h-5.2-5.2v-5.2z"/><path class="a" d="m41.9 88.4h5.2v5.1h-5.2v15.5h-5.2v-20.6z"/><path class="a" d="m41.9 0.5h5.2v10.3h-5.2z"/><path class="a" d="m41.9 16h5.2v5.2h-5.2z"/><path class="a" d="m41.9 31.5h5.2v10.4h-5.2v5.1h5.2v10.4h-5.2v-5.2h-5.2v-10.3h5.2z"/><path class="a" d="m41.9 109h5.2v15.5h-5.2z"/><path class="a" d="m41.9 129.7h5.2v10.4h-5.2z"/><path class="a" d="m41.9 145.2h5.2v5.2h-5.2z"/><path class="a" d="m47.1 0.5h5.2v5.2h-5.2z"/><path class="a" d="m47.1 21.2h5.2v5.2h-5.2z"/><path class="a" d="m47.1 98.7h5.1v5.2h5.2v5.1h-5.2v-5.1h-5.1z"/><path class="a" d="m57.4 5.7h5.2v5.1h-5.2-5.2v-5.1z"/><path class="a" d="m47.1 41.9v-5.2h5.1v-10.3h5.2v15.5h-5.2z"/><path class="a" d="m57.4 47h5.2v10.4h-5.2v-5.2h-5.2v-5.2z"/><path class="a" d="m57.4 72.9h5.2v5.1h-5.2v-5.1h-5.2v5.1h5.2v10.4h5.2v5.1h-5.2v5.2h-5.2v-5.2h-5.1v-5.1h5.1v-5.2h-5.1v-25.8h5.1v5.1h5.2z"/><path class="a" d="m52.2 140.1h5.2v10.3h-5.2-5.1v-5.2h5.1z"/><path class="a" d="m57.4 16h5.2v5.2h-5.2z"/><path class="a" d="m57.4 21.2h5.2v5.2h-5.2z"/><path class="a" d="m57.4 109h5.2v10.4h-5.2-5.2v5.1h-5.1v-10.3h5.1 5.2z"/><path class="a" d="m57.4 124.5h5.2v10.4h-5.2-5.2v-5.2h5.2z"/><path class="a" d="m62.6 31.5h5.2v5.2h-5.2z"/><path class="a" d="m62.6 72.9h5.2v5.1h-5.2z"/><path class="a" d="m67.7 134.9h5.2v5.2h-5.2-5.1v-5.2z"/><path class="a" d="m67.7 10.8h-5.1v-10.3h5.1v5.2h5.2v5.1 5.2h-5.2z"/><path class="a" d="m72.9 83.2h5.2v15.5h-5.2-5.2v5.2h5.2v15.5h-5.2-5.1v-10.4h5.1v-5.1h-5.1v-10.4h5.1v-10.3z"/><path class="a" d="m72.9 145.2v-5.1h5.2v10.3h-5.2-5.2v-5.2z"/><path class="a" d="m72.9 0.5h5.2v5.2h-5.2z"/><path class="a" d="m72.9 16h5.2v5.2h-5.2z"/><path class="a" d="m72.9 21.2h5.2v36.2h-5.2v10.3h-5.2-5.1v-5.2h5.1v-10.3h-5.1v-10.3h5.1v5.1h5.2z"/><path class="a" d="m72.9 124.5h5.2v10.4h-5.2z"/><path class="a" d="m83.3 10.8h5.1v5.2h5.2v5.2h-5.2v5.2h5.2v5.1h-5.2v5.2h5.2v20.7h-5.2v-5.2h-5.1v-5.2h5.1v-5.1h-5.1v-15.5h-5.2v-5.2-10.4z"/><path class="a" d="m78.1 140.1h5.2v5.1h-5.2z"/><path class="a" d="m83.3 57.4h5.1v5.1h5.2v5.2h-5.2v5.2h-5.1-5.2v-5.2h5.2z"/><path class="a" d="m88.4 93.5h5.2v10.4h-5.2v-5.2h-5.1v5.2h-5.2v-15.5h5.2v-10.4h5.1v10.4h-5.1v5.1z"/><path class="a" d="m88.4 124.5h5.2v15.6h-5.2v-5.2h-5.1v-20.7h-5.2v-5.2h5.2 5.1z"/><path class="a" d="m88.4 0.5h5.2v10.3h-5.2z"/><path class="a" d="m88.4 72.9h5.2v5.1h-5.2z"/><path class="a" d="m88.4 145.2h5.2v5.2h-5.2z"/><path class="a" d="m93.6 16h5.2v5.2h-5.2z"/><path class="a" d="m98.8 36.7h5.1v5.2h-5.1v5.1h-5.2v-20.6h5.2v-5.2h5.1v10.3h-5.1z"/><path class="a" d="m93.6 57.4h5.2v5.1h-5.2z"/><path class="a" d="m93.6 129.7h5.2v5.2h-5.2z"/><path class="a" d="m93.6 140.1h5.2v10.3h-5.2z"/><path class="a" d="m103.9 0.5h5.2v5.2h-5.2-5.1v5.1h-5.2v-10.3h5.2z"/><path class="a" d="m98.8 47h5.1v5.2h-5.1z"/><path class="a" d="m103.9 72.9h5.2v25.8h-5.2v-10.3h-5.1v5.1h-5.2v-10.3h5.2v-5.2h-5.2v-5.1h5.2v-10.4h5.1z"/><path class="a" d="m98.8 98.7h5.1v5.2h5.2v25.8h-5.2v-10.3h-5.1v-5.2h5.1v-5.2h-5.1v5.2h-5.2v-10.3h5.2z"/><path class="a" d="m103.9 10.8h5.2v5.2h-5.2z"/><path class="a" d="m103.9 31.5h5.2v5.2h-5.2z"/><path class="a" d="m103.9 57.4h5.2v5.1h-5.2z"/><path class="a" d="m103.9 134.9h5.2v15.5h-5.2z"/><path class="a" d="m109.1 57.4v-10.4h5.2v-5.1h5.1v15.5h-5.1z"/><path class="a" d="m109.1 83.2h5.2v15.5h-5.2z"/><path class="a" d="m119.4 0.5h5.2v5.2h-5.2v5.1 10.4 10.3h5.2v5.2h-5.2-5.1v-15.5-10.4-10.3z"/><path class="a" d="m114.3 67.7h5.1v10.3h-5.1z"/><path class="b" d="m114.3 114.2h5.1v5.2h-5.1z"/><path class="a" d="m119.4 124.5h5.2v20.7h-5.2v-15.5h-5.1v15.5h-5.2v-20.7h5.2z"/><path class="a" d="m119.4 62.5h5.2v5.2h-5.2z"/><path class="a" d="m119.4 88.4h5.2v20.6h-5.2-5.1-5.2v-5.1h5.2 5.1z"/><path class="a" d="m124.6 0.5h5.2v5.2h-5.2z"/><path class="b" d="m124.6 10.8h5.2v10.4 5.2h-5.2v-5.2z"/><path class="a" d="m124.6 31.5h5.2v5.2h-5.2z"/><path class="a" d="m124.6 47h5.2v10.4h-5.2z"/><path class="a" d="m124.6 78h5.2v10.4h-5.2z"/><path class="a" d="m124.6 93.5h5.2v5.2h-5.2z"/><path class="a" d="m124.6 103.9h5.2v31h-5.2z"/><path class="a" d="m124.6 140.1h5.2v10.3h-5.2z"/><path class="a" d="m129.8 0.5h5.2v5.2h-5.2z"/><path class="b" d="m129.8 10.8h5.2v10.4 5.2h-5.2v-5.2z"/><path class="a" d="m129.8 31.5h5.2v5.2h-5.2z"/><path class="a" d="m129.8 41.9h5.2v5.1h-5.2z"/><path class="a" d="m129.8 62.5h5.2v5.2h-5.2z"/><path class="a" d="m129.8 83.2h5.2v10.3h-5.2z"/><path class="a" d="m129.8 103.9h5.2v20.6h-5.2z"/><path class="a" d="m129.8 129.7h5.2v5.2h-5.2z"/><path class="a" d="m129.8 140.1h5.2v5.1h-5.2z"/><path class="a" d="m135 0.5h5.1v5.2h-5.1z"/><path class="b" d="m135 10.8h5.1v10.4 5.2h-5.1v-5.2z"/><path class="a" d="m135 31.5h5.1v5.2h-5.1z"/><path class="a" d="m135 52.2h5.1v5.2h-5.1z"/><path class="a" d="m135 62.5h5.1v15.5h-5.1z"/><path class="a" d="m135 88.4h5.1v25.8h-5.1z"/><path class="a" d="m135 124.5h5.1v5.2h-5.1z"/><path class="a" d="m135 134.9h5.1v5.2h-5.1z"/><path class="a" d="m145.3 41.9h5.2v10.3h-5.2v-5.2h-5.2v-5.1z"/><path class="a" d="m140.1 52.2h5.2v5.2h-5.2z"/><path class="a" d="m145.3 67.7h5.2v10.3h-5.2v15.5h-5.2v-25.8z"/><path class="a" d="m145.3 109h5.2v5.2h-5.2v5.2h5.2v20.7h-5.2v-10.4h-5.2v-20.7z"/><path class="a" d="m140.1 140.1h5.2v10.3h-5.2z"/><path class="a" d="m150.5 0.5v10.3 10.4 15.5h-5.2-5.2v-5.2h5.2v-10.3-10.4-5.1h-5.2v-5.2h5.2z"/><path class="a" d="m145.3 57.4h5.2v5.1h-5.2z"/></g></svg>