<svg version="1.2" xmlns="http://www.w3.org/2000/svg" viewBox="0 0 299 251" width="299" height="251"><defs><clipPath clipPathUnits="userSpaceOnUse" id="cp1"><path d="m-1446-159h1920v1080h-1920z"/></clipPath><clipPath clipPathUnits="userSpaceOnUse" id="cp2"><path d="m135.88 98.5h1.23v6.87h-1.23z"/></clipPath><clipPath clipPathUnits="userSpaceOnUse" id="cp3"><path d="m135.88 98.5h1.23v6.87h-1.23z"/></clipPath><clipPath clipPathUnits="userSpaceOnUse" id="cp4"><path d="m128.71 97.59h0.67v7.55h-0.67z"/></clipPath><clipPath clipPathUnits="userSpaceOnUse" id="cp5"><path d="m128.71 97.59h0.67v7.55h-0.67z"/></clipPath><clipPath clipPathUnits="userSpaceOnUse" id="cp6"><path d="m119.75 98.81h0.57v6h-0.57z"/></clipPath><clipPath clipPathUnits="userSpaceOnUse" id="cp7"><path d="m119.75 98.81h0.57v6h-0.57z"/></clipPath><clipPath clipPathUnits="userSpaceOnUse" id="cp8"><path d="m99.01 120.29h5.74v43.66h-5.74z"/></clipPath><clipPath clipPathUnits="userSpaceOnUse" id="cp9"><path d="m99.01 120.29h5.74v43.66h-5.74z"/></clipPath><clipPath clipPathUnits="userSpaceOnUse" id="cp10"><path d="m122.28 137.64h2.15v2.17h-2.15z"/></clipPath><clipPath clipPathUnits="userSpaceOnUse" id="cp11"><path d="m122.28 137.64h2.15v2.17h-2.15z"/></clipPath><clipPath clipPathUnits="userSpaceOnUse" id="cp12"><path d="m136.41 137.81h2.11v2.01h-2.11z"/></clipPath><clipPath clipPathUnits="userSpaceOnUse" id="cp13"><path d="m136.41 137.81h2.11v2.01h-2.11z"/></clipPath><clipPath clipPathUnits="userSpaceOnUse" id="cp14"><path d="m150.28 137.81h2.15v2.18h-2.15z"/></clipPath><clipPath clipPathUnits="userSpaceOnUse" id="cp15"><path d="m150.28 137.81h2.15v2.18h-2.15z"/></clipPath><clipPath clipPathUnits="userSpaceOnUse" id="cp16"><path d="m163.85 137.99h2.11v2.39h-2.11z"/></clipPath><clipPath clipPathUnits="userSpaceOnUse" id="cp17"><path d="m163.85 137.99h2.11v2.39h-2.11z"/></clipPath><clipPath clipPathUnits="userSpaceOnUse" id="cp18"><path d="m176.62 138.16h2.17v2.2h-2.17z"/></clipPath><clipPath clipPathUnits="userSpaceOnUse" id="cp19"><path d="m176.62 138.16h2.17v2.2h-2.17z"/></clipPath><clipPath clipPathUnits="userSpaceOnUse" id="cp20"><path d="m108.06 138.29h0.87v9.33h-0.87z"/></clipPath><clipPath clipPathUnits="userSpaceOnUse" id="cp21"><path d="m108.06 138.29h0.87v9.33h-0.87z"/></clipPath><clipPath clipPathUnits="userSpaceOnUse" id="cp22"><path d="m197.51 149.79h1.21v1.32h-1.21z"/></clipPath><clipPath clipPathUnits="userSpaceOnUse" id="cp23"><path d="m197.51 149.79h1.21v1.32h-1.21z"/></clipPath><clipPath clipPathUnits="userSpaceOnUse" id="cp24"><path d="m206.16 149.87h1.21v1.31h-1.21z"/></clipPath><clipPath clipPathUnits="userSpaceOnUse" id="cp25"><path d="m206.16 149.87h1.21v1.31h-1.21z"/></clipPath><clipPath clipPathUnits="userSpaceOnUse" id="cp26"><path d="m214.77 150.07h1.21v1.5h-1.21z"/></clipPath><clipPath clipPathUnits="userSpaceOnUse" id="cp27"><path d="m214.77 150.07h1.21v1.5h-1.21z"/></clipPath><clipPath clipPathUnits="userSpaceOnUse" id="cp28"><path d="m223.38 150.22h1.21v1.33h-1.21z"/></clipPath><clipPath clipPathUnits="userSpaceOnUse" id="cp29"><path d="m223.38 150.22h1.21v1.33h-1.21z"/></clipPath><clipPath clipPathUnits="userSpaceOnUse" id="cp30"><path d="m225.47 151.86h2.22v3.06h-2.22z"/></clipPath><clipPath clipPathUnits="userSpaceOnUse" id="cp31"><path d="m225.47 151.86h2.22v3.06h-2.22z"/></clipPath><clipPath clipPathUnits="userSpaceOnUse" id="cp32"><path d="m228.82 151.86h1.12v1.6h-1.12z"/></clipPath><clipPath clipPathUnits="userSpaceOnUse" id="cp33"><path d="m228.82 151.86h1.12v1.6h-1.12z"/></clipPath></defs><style>tspan{white-space:pre}.a{fill:#fff}</style><g clip-path="url(#cp1)"><path class="a" d="m97.4 5.2l0.2 0.6-1.4-0.1 0.2-0.5z"/><path class="a" d="m97.1 3.7l0.1 0.5q0.2 0.1 0.2 0.4 0 0.2-0.2 0.3v0.3h-0.7v-0.3q-0.1-0.1-0.1-0.3 0-0.3 0.2-0.4v-0.5c-0.1-0.1-0.2-0.3-0.2-0.4 0-0.2 0.1-0.4 0.3-0.5v-0.4c-0.2 0-0.3-0.2-0.3-0.4 0-0.2 0.2-0.4 0.4-0.5v-1.1h0.1l0.1 1.1c0.2 0.1 0.4 0.3 0.4 0.5 0 0.2-0.2 0.4-0.3 0.4v0.4c0.2 0.1 0.3 0.3 0.3 0.5q0 0.2-0.3 0.4z"/><path class="a" d="m130.2 82l-0.1-0.8 0.6-0.3 0.5-0.2v-9l-0.3-0.6 0.3-0.2 1.8-10.8h0.2l-0.9 11.1-0.1 9.4 0.5 1v2.1c-0.4-0.5-0.7-0.5-1.2-0.8-0.5-0.5-0.7-0.5-1.3-0.9z"/><g style="opacity:.6"><path class="a" d="m240.6 149.6h1.2v0.8h0.2v0.7l0.5 0.5 0.4 0.6 0.1 0.8q-1.1-1.7-2.5-2.7l0.1-0.7q0 0 0 0z"/></g><g style="opacity:.6"><path class="a" d="m237.4 160.4l-0.1-6.1c0.2-1.7 2.1-3.6 2.7-3.7 1.8 0.9 2.6 2.6 3.1 4.3l0.1 3.7h-0.3v1.5c0 0-5.5 0.3-5.5 0.3z"/></g><g style="opacity:.6"><path class="a" d="m256.6 162.5v-0.4l-0.5-0.1v-0.4h-0.5v-0.4h-0.8l-0.2-2.9-0.1-2.1-0.2-3c1.7 0.9 2.5 2.2 3 3.9l0.1 5.3h-0.8q0 0 0 0.1z"/></g><g style="opacity:.6"><path class="a" d="m238.6 160.3v-2.5l-0.2-0.4c0 0 0-0.7-0.1-0.8 0-0.1-0.1-0.2-0.3-0.3q-0.2-0.2-0.2-0.6c0-2.8-0.6-3.4-0.6-3.3l-0.1-1.9 0.5-0.1-0.1-0.9 4.3 0.1v0.8l0.2 0.1v0.4c-1.6 0-1.8 1.7-1.8 1.7v3.3l-0.4 0.6 0.1 0.6v3.1c0 0-1.3 0.1-1.3 0.1z"/></g><g style="opacity:.6"><path class="a" d="m246.2 160l-0.1-2.1-0.3-0.6v-0.6l-0.5-0.5-0.3-3.1-0.5-0.8c0 0 0.1-1.1 0.5-1.4l-0.1-0.4 0.4-0.1v-0.9h4.3v1l0.4 0.1 0.3 1 0.2 6.3v0.5l-0.2 0.2-0.1 1.1c0 0-4 0.3-4 0.3z"/></g><g style="opacity:.6"><path class="a" d="m208.7 162.6l-0.1-6.1c0.5-1.7 2.1-3.3 2.7-3.4 1.8 0.9 2.6 2.2 3.1 4l0.1 5.3c0 0-5.8 0.2-5.8 0.2z"/></g><path class="a" d="m61.2 124.7h-0.4v-2l-0.8-0.1v-0.4l-0.9-0.6 13.4-1.6 10.7 0.3h1.6v0.4h-1.6l-10.7-0.3-12.4 1.4 0.3 0.2v0.3l0.8 0.1z"/><path class="a" d="m72.6 121.2h0.3v2.3h-0.3z"/><path class="a" d="m61 122.6l-0.1-0.3 11.7-1.4 12.5 0.4v0.4l-12.4-0.4z"/><path class="a" d="m60.2 122.3v-0.4l12.3-1.4 12.6 0.4-0.1 0.4-12.5-0.5z"/><path class="a" d="m68.6 120.6v-0.7h-0.5l-0.1-0.7-0.3-0.2 0.7-1.1 5.6-0.2 6.5 0.2h4.3v0.3h-4.3l-6.5-0.1-5.4 0.1-0.4 0.7 0.1 0.1 0.1 0.5h0.5l0.1 1.1z"/><path class="a" d="m68.3 119.3l-0.3-0.2 0.7-0.9 5.4-0.1 6.7 0.1 3.7 0.2v0.3l-3.7-0.1-6.7-0.1-5.2 0.1z"/><path class="a" d="m68.7 119.8l-0.3-0.2 0.4-0.8 5.3-0.2 6.5 0.2 3.9 0.3v0.4l-3.9-0.4-6.5-0.2-5 0.3z"/><path class="a" d="m243 150.6h-1.4v-0.2c0-3-0.7-4.8-2.4-5.4l0.2-0.3c1.8 0.6 2.6 2.4 2.5 5.5h1.1c0 0 0 0.4 0 0.4z"/><path class="a" d="m237.5 162.7v-0.3h18.9v-0.2h-0.5v-0.4h-0.5v-0.5h-0.5v-0.3h0.9v0.4h0.5v0.5h0.5v0.8h-0.2z"/><path class="a" d="m242.8 160.3v-1.8h0.2c0-0.9-0.1-5.1-0.2-6-0.2-0.9-0.8-1.2-0.8-1.2h-0.1v-0.8h0.3v0.5c0.3 0.2 0.8 0.6 0.9 1.4 0.2 1.1 0.2 6 0.2 6.2v0.2h-0.2v1.1h1.8v-1.1h-0.3l-0.3-6.7c0-0.1 0.1-0.9 0.4-1.2v-0.4h0.4v0.5l-0.1 0.1c-0.2 0.2-0.3 0.8-0.4 1l0.3 6.4h0.4v1.8h-2.5z"/><path class="a" d="m250.8 150.6h-1.4v-0.1c0-3.2-0.9-4.9-2.6-5.5l0.1-0.3c1.9 0.6 2.8 2.4 2.9 5.6h1z"/><path class="a" d="m250.4 159.9h-0.3v-1.4l0.3-0.1c0-0.8-0.1-4.9-0.2-6.1 0-1.1-0.4-1.7-0.4-1.7l0.3-0.2c0 0 0.5 0.6 0.5 1.9 0 1.3 0.2 6.2 0.2 6.2v0.1l-0.4 0.2v1.1z"/><path class="a" d="m246.9 144.9c0.8 0.2 1.3 0.8 1.9 1.7h-3.3c0.3-0.9 0.7-1.4 1.4-1.7z"/><path class="a" d="m239.3 144.9c0.7 0.2 1.2 0.8 1.8 1.7h-3.3c0.3-0.9 0.7-1.4 1.5-1.7z"/><path class="a" d="m253.8 141.5c0 0 2.4 0.7 2.6 3.8 0.2 3.2 0.1 3.9 0.1 3.9l-2.3 0.1c0 0-0.4-7.8-0.4-7.8z"/><path fill-rule="evenodd" class="a" d="m104.1 164.1v-0.7l4.8-2.6 72.3-0.3 4.4 2.6c0 0-81.5 1-81.5 1zm0.3-0.5v0.1l80-0.9-3.3-2-72.1 0.3z"/><path class="a" d="m254 138.2v-0.4l15.6 0.1v0.3z"/><path class="a" d="m253.6 138.7v-0.4l15.5 0.2v0.4z"/><path class="a" d="m65.4 121l1.4-0.2q-0.7 0.2-1.4 0.2z"/><path class="a" d="m93.2 92.4q0.1-0.1 0.2-0.2 0 0.1 0 0.1c-0.1 0.1-0.2 0.1-0.2 0.1z"/><path class="a" d="m101.5 85q-0.2 0.1-0.3 0.1 0.1-0.1 0.2-0.2 0.1 0 0.1 0.1z"/><path class="a" d="m94 99.6q-0.2-0.1-0.3-0.1-0.3-0.3-0.5-0.7c-0.1-0.1-0.1-0.2-0.2-0.3q0.1 0 0.1-0.1 0.2 0.3 0.4 0.5 0.2 0.4 0.5 0.7z"/><path class="a" d="m118 73.9v0.5q0 0.1-0.1 0.2v-0.7c0 0 0.1 0 0.1 0z"/><path class="a" d="m176.4 71.3q0 0.1 0 0.1-0.1 0.1-0.2 0.2v-0.2q0.1 0 0.2-0.1z"/><path class="a" d="m183.9 89.4q0.1 0 0.1 0 0 0-0.1 0z"/><path class="a" d="m183.5 91.9l0.5 0.1v0.1q-0.2 0-0.5-0.2z"/><path class="a" d="m99.9 98.8l0.4-0.1 3.6 15.4-0.3 0.1z"/><path class="a" d="m89.7 114.1l3.4-15.4 0.4 0.1-3.5 15.4z"/><path class="a" d="m100.2 96h-0.4v-24.2l-1.3-0.7h-3.9l-1.1 0.7v24h-0.3l-0.1-24.2 1.4-0.8h4.1l1.6 0.8z"/><path class="a" d="m93.1 71.8l-0.7-0.9 2.1-1.1h4.1l2.1 1.1-0.5 0.9-0.3-0.2 0.3-0.6-1.7-0.8h-3.9l-1.6 0.8 0.4 0.6z"/><path class="a" d="m92.8 71l-0.3-0.1 0.7-1.3v-1.1l1.4-0.6h4.1l1.5 0.4v1.3l0.5 1.3-0.4 0.1-0.5-1.4v-1l-1.2-0.3h-3.9l-1.2 0.4v1z"/><path class="a" d="m93.2 68.7l-1.9-2.3 0.3-0.1c3.3-1.2 6.6-1.1 10.1 0.2l0.2 0.1-1.7 2-0.3-0.3 1.4-1.6c-3.2-1.1-6.3-1.2-9.4-0.1l1.6 1.9-0.3 0.2z"/><path class="a" d="m101.8 66.7h-0.4v-3.1l-1-0.8c-2.5-0.6-5.2-0.6-7.8 0l-0.9 0.5 0.1 3.2h-0.4l-0.1-3.4 1.2-0.6c2.7-0.6 5.4-0.6 8 0h0.1l1.2 0.9c0 0 0 3.3 0 3.3z"/><path class="a" d="m93.1 49.3l-0.7-0.9 2.1-1.1h4.1l2.1 1.1-0.5 0.9-0.3-0.2 0.3-0.6-1.7-0.8h-3.9l-1.6 0.8 0.4 0.6z"/><path class="a" d="m92.8 48.5l-0.3-0.1 0.7-1.3v-1.1l1.4-0.5h4.1l1.5 0.3v1.3l0.5 1.3-0.4 0.1-0.5-1.4v-1l-1.2-0.3h-3.9l-1.2 0.5v0.9z"/><path class="a" d="m93.2 46.3l-1.9-2.4h0.3c3.3-1.3 6.6-1.2 10.1 0.1l0.2 0.1-1.7 2-0.3-0.3 1.4-1.5c-3.2-1.2-6.3-1.3-9.4-0.2l1.6 1.9-0.3 0.3q0 0 0 0z"/><path class="a" d="m101.8 44.2h-0.4v-3.1l-1-0.8c-2.5-0.5-5.2-0.5-7.8 0l-0.9 0.6 0.1 3.1h-0.4l-0.1-3.3 1.2-0.7c2.7-0.6 5.4-0.6 8 0h0.1l1.2 0.9v3.3q0 0 0 0z"/><path class="a" d="m93.1 49.2h0.4v13.3h-0.3z"/><path class="a" d="m99.8 49h0.4v13.5h-0.4z"/><path class="a" d="m100.1 99l-1.6-0.9h-3.9l-1.2 0.8-0.2-0.3 1.3-0.8h4.1l1.6 0.9z"/><path class="a" d="m142.9 102.4c-8.3-5.5-41.3-3.2-42.7-3.1l-0.1-0.4c1.4-0.1 34.6-2.4 43 3.2z"/><path class="a" d="m93.1 98.9l-0.6-1 2-1.1 4.1 0.1 2.1 1-0.4 0.9-0.4-0.1 0.4-0.7-1.8-0.8h-3.9l-1.6 0.8 0.4 0.6z"/><path class="a" d="m142.9 101.8c-8.3-5.6-42.4-3-42.8-3v-0.3c0.1 0 8.7-0.7 18.3-0.7 12.8 0.1 21.2 1.3 24.7 3.7l-0.2 0.3z"/><path class="a" d="m100.3 98l-0.5-1.3v-1.2h0.4v1.1l0.5 1.3z"/><path class="a" d="m92.8 98l-0.3-0.1 0.7-1.3v-1h0.3v1.1z"/><g style="opacity:.4"><path class="a" d="m92.4 40.2l0.8-0.2v-15l-0.5-1 0.5-0.3 3-17.9h0.5l-1.6 18.3-0.2 15.7 0.9 1.6 0.1 17.1 1.6 4.8-1.7 2.4-0.8 2.5 0.1 29.8-2.9 15.9-1.7-0.1-0.5 0.2 3.3-15.2-0.6-0.8 0.7-1.3v-19l-0.1-5.9-0.6-0.8 0.7-1.3v-1l-1.8-2.2-0.1-3.2 1.2-0.7 0.7-0.1-0.1-13.2-0.6-0.9 0.7-1.2v-1.1l-1.8-2-0.1-3.3z"/></g><path class="a" d="m93.1 24.9h0.3v15.1h-0.3z"/><path class="a" d="m100 24.9h0.4v15.1h-0.4z"/><path fill-rule="evenodd" class="a" d="m100.2 25.1l-1.8-0.9h-3.4l-1.9 0.9-0.6-1.2 2.2-1.1h4.1l2.1 1.1zm-7.3-1.1v-0.1q0 0.1 0 0.1zm0.3 0.6l1.6-0.8h3.6l1.6 0.8 0.3-0.6-1.7-0.9h-4l-1.7 0.9z"/><path class="a" d="m93.4 23.7h-0.3l2.9-18.1h1.8l2.6 18.1h-0.4l-2.5-17.8h-1.2z"/><path class="a" d="m135.2 85.9l-0.3-0.8v-0.6l-0.6-0.2h-1.1v-0.3h1.1l1 0.2v0.8l0.3 0.8z"/><path class="a" d="m135.3 84.5l-0.3-0.3 0.8-0.8c-1.5-0.6-3-0.7-4.4-0.4l-0.1-0.4c1.6-0.3 3.2-0.1 4.9 0.5l0.2 0.1z"/><path class="a" d="m136.3 83.3h-0.4v-1.8l-0.6-0.5q-2.3-0.5-4.6 0l-0.5 0.3v0.6h-0.4v-0.8l0.8-0.4q2.5-0.6 4.9 0l0.8 0.6c0 0 0 2 0 2z"/><path class="a" d="m130.9 71.7h0.3v9.1h-0.3z"/><path class="a" d="m135.1 71.7h0.3v9.1h-0.3z"/><path fill-rule="evenodd" class="a" d="m135.3 71.9l-1.2-0.6h-2l-1.2 0.6-0.4-0.9 1.4-0.7 2.5 0.1 1.3 0.6-0.4 0.9zm-4.3-0.7l0.1 0.2 1-0.4h2.2l0.8 0.4 0.2-0.2-1-0.5h-2.3l-1 0.5q0 0 0 0z"/><path class="a" d="m131.2 71l-0.3-0.1 1.8-10.9h1.2l1.5 10.9-0.3 0.1-1.5-10.7h-0.6z"/><path class="a" d="m133.5 60.2l-0.1-0.2h-0.3l-0.1 0.2-0.3-0.1 0.1-0.5h0.9l0.2 0.5z"/><path class="a" d="m133.4 58.9v0.3q0.1 0.1 0.1 0.2 0 0.2-0.1 0.2l0.1 0.2h-0.5v-0.2q-0.1 0-0.1-0.2 0-0.1 0.2-0.2v-0.3q-0.1-0.1-0.1-0.3 0-0.1 0.1-0.2v-0.3q-0.1 0-0.1-0.2c0-0.2 0-0.3 0.2-0.3v-0.7h0.1v0.7c0.1 0 0.2 0.1 0.2 0.3 0 0.1 0 0.2-0.1 0.2v0.3q0.1 0.1 0.1 0.2 0 0.2-0.1 0.3z"/><path class="a" d="m118.1 77.1l0.1 0.5q0.2 0.1 0.2 0.4 0 0.2-0.2 0.3v0.3h-0.7v-0.3q-0.1-0.1-0.1-0.3 0-0.3 0.2-0.4v-0.5c-0.1-0.1-0.2-0.3-0.2-0.4 0-0.2 0.1-0.4 0.3-0.5v-0.4c-0.2 0-0.3-0.2-0.3-0.4 0-0.2 0.2-0.4 0.4-0.5v-1.1h0.1l0.1 1.1c0.2 0.1 0.4 0.3 0.4 0.5 0 0.2-0.1 0.4-0.3 0.4v0.4c0.2 0.1 0.3 0.3 0.3 0.5q0 0.2-0.3 0.4z"/><path class="a" d="m149.5 117.5h-0.4v-5.4l-2.6-1.7v-1.8l0.5-0.6-3.1-1.2-6.9-1.2-25.3-1-10.2 0.4v-0.4l10.2-0.3 25.3 1 7 1.1 3.6 1.4-0.8 0.9v1.5l2.7 1.7z"/><path class="a" d="m146.6 108.7l-2.7-1.1-6.9-1.1-25.3-1-10 0.3v-0.3l10-0.4 25.3 1 7 1.2 2.8 1.1z"/><path class="a" d="m101.3 104.4l-0.2-2.4q0.2-1.7 1.5-2l0.1 0.3q-1.1 0.3-1.2 1.7l0.1 2.4c0 0-0.3 0-0.3 0z"/><path class="a" d="m103.6 104.8l-0.4-0.1v-3.2q-0.3-1.2-1.3-1.6c-0.5 0.3-0.9 0.8-1.1 1.3l-0.3-0.1c0.2-0.6 0.7-1.2 1.3-1.5l0.1-0.1v0.1q1.3 0.4 1.7 1.8l0.4-3.9h3.1l-0.4 7.2-0.4-0.1 0.4-6.8h-2.4c0 0-0.7 7-0.7 7z"/><path class="a" d="m141.7 100.7c-0.5-6-3.2-11.5-7.7-15.5-4.4-4.1-10.2-6.4-16.2-6.4-6.8 0-13.2 2.8-17.7 7.8l-0.3-0.3c4.6-5 11.1-7.8 18-7.8 6.1 0 12 2.2 16.5 6.4 4.5 4.1 7.2 9.7 7.8 15.8z"/><path class="a" d="m111.8 104.5h-0.3l0.4-7.5h3l-0.2 7.5h-0.4l0.2-7.2h-2.3z"/><path class="a" d="m123.1 104.9h-0.4v-7.6h-2.2v7.5h-0.4v-7.8h3z"/><path class="a" d="m131.6 105.3l-0.5-7.4h-2l0.5 7.3h-0.3l-0.6-7.7h2.7l0.6 7.7z"/><path fill-rule="evenodd" class="a" d="m137 105.6l-0.8-5.6v-1.6l1.8 0.2v1.3c0 0 0.8 6 0.8 6zm0.3-0.3l1 0.2-0.6-5.5v-1.1l-1.2-0.1v1.2z"/><g style="opacity:.4"><path class="a" d="m135.9 98.5h1.2v6.9h-1.2z"/><g clip-path="url(#cp2)"><path class="a" d="m135.9 98.5h1.2v6.9h-1.2z"/><g clip-path="url(#cp3)"><path class="a" d="m136.3 99.9l0.8 5.5h-1l-0.2-5.4v-1.5h0.4z"/></g></g></g><g style="opacity:.4"><path class="a" d="m106.9 98.8h4.9v5.7h-4.9z"/><path class="a" d="m106.9 98.8h4.9v5.7h-4.9z"/><path class="a" d="m106.9 98.9l4.9-0.1-0.1 5.7h-0.5l0.5-5.3-4.8 0.2z"/></g><path class="a" d="m107.7 104.6h-0.3l0.1-3.8c0.4-0.8 1-1.3 1.8-1.7h0.1q1.1 0.4 1.7 1.6v0.1 3.6h-0.3v-3.6q-0.5-0.9-1.4-1.3c-0.7 0.3-1.2 0.7-1.6 1.4l-0.1 3.7q0 0 0 0z"/><path class="a" d="m115.8 104.4v-3.6c0.4-0.8 1-1.4 1.9-1.8 0.8 0.3 1.5 0.9 1.8 1.8v3.6z"/><g style="opacity:.4"><path class="a" d="m118.2 78.6c0 0-6 21.6-1.8 41.7l-12.3-0.1-0.6 0.3v-4.8l1.1-1.6-0.8 0.1-3.7-15.3 0.4-0.9-0.5-1.3v-3.3c0.1-2.1-0.3-4.8 0-6.3 0.2-0.9 0-0.5 0.5-1.2 0.2-0.3 1.1-1.1 1.3-1.3 5.1-4.1 10-6 16.4-6z"/></g><path fill-rule="evenodd" class="a" d="m124.2 104.8v-3.8q0.6-1.4 1.9-1.8l0.1-0.1 0.1 0.1q1.4 0.6 1.8 1.9v0.1 3.6zm0.4-0.4h3.3v-3.2q-0.5-1.2-1.7-1.7-1.1 0.4-1.6 1.6v3.3q0 0 0 0z"/><path class="a" d="m124.5 104.5l-0.1-3.4c0-0.5 0.5-1.1 1.3-1.6q1.2 0.7 1.6 1.8v3.2z"/><path class="a" d="m133.7 105.4l-1.4-0.4v-3.6q0.3-1.1 1.4-1.5l0.1-0.1 0.1 0.1q0.9 0.5 1.5 1.8l0.1 0.1v3.6h-0.4v-3.5q-0.6-1.2-1.3-1.7-0.9 0.4-1.2 1.2v3.4l1.2 0.3-0.1 0.3z"/><path class="a" d="m133.8 105.3l-1.3-0.4v-3.5q0.1-0.5 0.6-1c0.6 0.4 1 1 1 1.8v3.1z"/><path class="a" d="m101.6 104.7l-0.3-2.8c0-0.8 0.5-1.5 1.3-1.7q0.5 0.4 0.8 1.3v3.2z"/><path class="a" d="m108.1 104.6l0.1-3.6c0.1-0.6 0.6-1.2 1.1-1.7 0.8 0.1 1.4 0.9 1.6 1.7l0.1 3.4c0 0-2.9 0.2-2.9 0.2z"/><path class="a" d="m140.2 106h-0.4v-3.4q0.1-0.7-0.4-1.3-0.5 0.4-0.7 1.1v3.1h-0.3v-3.2q0.2-0.9 1-1.3l0.1-0.1 0.1 0.1q0.6 0.7 0.6 1.6c0 0 0 3.3 0 3.4z"/><path class="a" d="m138.6 102.2q0.3 0.2 0.3 1v2.6l-0.3-0.1v-3.5q0 0 0 0z"/><path class="a" d="m142.8 101.5h0.4l0.7 5-0.3 0.1z"/><g style="opacity:.4"><path class="a" d="m128.7 97.6h0.7v7.5h-0.7z"/><g clip-path="url(#cp4)"><path class="a" d="m128.7 97.6h0.7v7.5h-0.7z"/><g clip-path="url(#cp5)"><path class="a" d="m129.4 105.1h-0.6l-0.1-7.4 0.1-0.1z"/></g></g></g><g style="opacity:.4"><path class="a" d="m119.7 98.8h0.6v6h-0.6z"/><g clip-path="url(#cp6)"><path class="a" d="m119.7 98.8h0.6v6h-0.6z"/><g clip-path="url(#cp7)"><path class="a" d="m120.3 104.8h-0.5l0.4-6z"/></g></g></g><path class="a" d="m145.5 114.9h-0.4v-4l-8.1-4.4 0.2-0.3 8.3 4.5z"/><path class="a" d="m111.1 113.7l0.2-8.3h0.3l-0.2 8.3z"/><path class="a" d="m111.2 109.9l-4.9-3.4-3.6 2.9-0.2-0.3 3.8-3 5.1 3.5z"/><path class="a" d="m103.3 115.5h0.4v5h-0.4z"/><path class="a" d="m89.3 116.6l-0.2-0.3 1.9-1.4h0.1l12.6 0.4v0.4l-12.5-0.4z"/><path class="a" d="m89.2 116.5l-1.1-1.4 2.4-1.6 14.4 0.4-1.1 1.7-0.3-0.1 0.8-1.2-13.7-0.4-2 1.3 0.9 1.1z"/><path class="a" d="m183.8 102.6l0.3-0.1 4.9 14.1-0.3 0.1z"/><path class="a" d="m184.1 101.4h-0.4v-22.8l-1.2-0.6h-3.5l-1 0.6 0.1 22.7h-0.4v-22.9l1.2-0.8 3.7 0.1 1.5 0.7z"/><path class="a" d="m177.7 78.6l-0.6-0.8 1.9-1h3.6l2 0.9-0.6 0.9-0.3-0.2 0.4-0.5-1.6-0.8h-3.5l-1.4 0.8 0.4 0.5z"/><path class="a" d="m177.4 77.9l-0.3-0.2 0.6-1.1v-1l1.3-0.5h3.7l1.4 0.3v1.2l0.4 1.2-0.4 0.1-0.4-1.3v-0.9l-1.1-0.3-3.5 0.1-1 0.3v0.9z"/><path class="a" d="m177.8 75.9l-1.7-2.2h0.2c3-1.1 6-1.1 9.1 0.1l0.2 0.1-1.6 1.8-0.2-0.2 1.2-1.4c-2.9-1.1-5.6-1.1-8.4-0.2l1.4 1.7c0 0-0.2 0.3-0.2 0.3z"/><path class="a" d="m185.5 74h-0.3v-2.8l-1-0.7c-2.3-0.5-4.6-0.5-7 0l-0.8 0.5 0.1 2.8h-0.3l-0.2-3 1.1-0.6q3.7-0.8 7.3 0l1.1 0.9z"/><path class="a" d="m177.7 58.4l-0.6-0.8 1.9-1h3.6l2 0.9-0.6 0.9-0.3-0.2 0.4-0.5-1.6-0.8h-3.5l-1.4 0.8 0.4 0.5z"/><path class="a" d="m177.4 57.7l-0.3-0.2 0.6-1.1v-1l1.3-0.5h3.7l1.4 0.3v1.2l0.4 1.2-0.4 0.1-0.4-1.3v-0.9l-1.1-0.2h-3.5l-1 0.4v0.8z"/><path class="a" d="m177.8 55.7l-1.7-2.1 0.2-0.1c3-1.1 6-1.1 9.1 0.1l0.2 0.1-1.6 1.8-0.2-0.2 1.2-1.4c-2.9-1.1-5.6-1.1-8.4-0.2l1.4 1.7z"/><path class="a" d="m185.5 53.8h-0.3v-2.8l-1-0.7c-2.3-0.5-4.6-0.5-7 0l-0.8 0.5 0.1 2.8h-0.3l-0.2-3 1.1-0.6q3.7-0.8 7.3 0l1.1 0.9c0 0 0 2.9 0 2.9z"/><path class="a" d="m177.7 58.3h0.3l0.1 11.9h-0.4z"/><path class="a" d="m183.7 58.1h0.4v12.2h-0.4z"/><g style="opacity:.4"><path class="a" d="m177.1 50.2l0.7-0.2v-13.5l-0.5-0.9 0.5-0.3 2.6-16h0.5l-1.4 16.4-0.2 14.1 0.8 1.4 0.1 15.4 1.5 4.3-1.6 2.2-0.7 2.2v26.8l-1.5 14.4 0.2 5.5-6.1-0.2 1.3-3.4-0.8-1 1.2-0.3 4.2-14.4-0.7-1 1-0.5-0.3-17.3-0.1-5.4-0.5-0.7 0.6-1.2v-0.9l-1.6-1.9-0.1-2.9 1.1-0.6 0.6-0.1-0.1-11.9-0.5-0.8 0.6-1.1v-0.9l-1.6-1.9-0.1-2.9z"/></g><path class="a" d="m177.6 36.4h0.4v13.6h-0.4z"/><path class="a" d="m183.9 36.4h0.3v13.6h-0.3z"/><path fill-rule="evenodd" class="a" d="m184.1 36.7l-1.7-0.8h-3.1l-1.6 0.8-0.6-1.2 2-0.9h3.7l1.9 0.9c0 0-0.6 1.2-0.6 1.2zm-6.5-1l0.2 0.5 1.5-0.7h3.2l1.4 0.7 0.3-0.5-1.6-0.8h-3.5l-1.5 0.8z"/><path class="a" d="m178 35.4h-0.4l2.7-16.3h1.6l2.3 16.3h-0.3l-2.3-16h-1z"/><path class="a" d="m181.6 19.4l-0.2-0.4h-0.6l-0.1 0.3-0.4-0.1 0.2-0.6h1.2l0.2 0.6z"/><path class="a" d="m181.3 17.4v0.5q0.2 0.1 0.2 0.3 0 0.2-0.1 0.3v0.3h-0.7l0.1-0.3q-0.2-0.1-0.2-0.3 0-0.2 0.2-0.3v-0.5q-0.2-0.1-0.2-0.4c0-0.1 0.1-0.3 0.3-0.3v-0.4c-0.2-0.1-0.3-0.2-0.3-0.4 0-0.2 0.2-0.4 0.4-0.4v-1.1h0.1l0.1 1.1c0.2 0 0.3 0.2 0.3 0.4 0 0.2-0.1 0.3-0.3 0.4l0.1 0.3c0.1 0.1 0.2 0.3 0.2 0.4q0 0.3-0.2 0.4z"/><path class="a" d="m74.2 113.4l-0.1-15.7 0.9-0.6h2.7l1 0.6v15.7h-0.4v-15.5l-0.8-0.4h-2.4l-0.6 0.4v15.5z"/><path class="a" d="m74.1 97.9l-0.4-0.7 1.4-0.7h2.5l1.4 0.7-0.4 0.7-0.3-0.2 0.2-0.4-1-0.4h-2.4l-0.9 0.4 0.2 0.4z"/><path class="a" d="m74.1 97.4l-0.4-0.2 0.5-0.8v-0.7l0.9-0.4h2.6l1 0.3v0.8l0.3 0.8-0.4 0.1-0.3-0.8v-0.6l-0.7-0.2h-2.4l-0.7 0.3v0.5z"/><path class="a" d="m74.2 96l-1.2-1.6 0.2-0.1c2.1-0.7 4.2-0.7 6.4 0.2h0.2l-1.2 1.3-0.2-0.2 0.8-0.9c-2-0.7-3.8-0.7-5.6-0.1l0.9 1.1c0 0-0.3 0.2-0.3 0.3z"/><path class="a" d="m79.7 94.6h-0.4v-1.9l-0.6-0.4q-2.4-0.5-4.8 0l-0.5 0.3v1.9h-0.3l-0.1-2.1 0.8-0.5q2.5-0.5 5 0l0.1 0.1 0.8 0.6c0 0 0 2 0 2z"/><path class="a" d="m74.1 83.9l-0.4-0.7 1.4-0.7h2.5l1.4 0.7-0.4 0.6-0.3-0.1 0.2-0.4-1-0.5h-2.4l-0.9 0.5 0.2 0.3z"/><path class="a" d="m74.1 83.3l-0.4-0.1 0.5-0.8v-0.7l0.9-0.4h2.6l1 0.3v0.8l0.3 0.8-0.4 0.1-0.3-0.9v-0.6l-0.7-0.1h-2.4l-0.7 0.2v0.6z"/><path class="a" d="m74.2 81.9l-1.2-1.5 0.2-0.1c2.1-0.7 4.2-0.7 6.4 0.1l0.2 0.1-1.2 1.3-0.2-0.2 0.8-0.9c-2-0.7-3.8-0.7-5.6-0.1l0.9 1.1c0 0-0.3 0.2-0.3 0.2z"/><path class="a" d="m79.7 80.6h-0.4v-1.9l-0.6-0.5q-2.4-0.5-4.8 0l-0.5 0.4v1.9h-0.3l-0.1-2.1 0.8-0.5q2.5-0.5 5 0h0.1l0.8 0.6c0 0 0 2.1 0 2.1z"/><path class="a" d="m74.1 83.7h0.4v8.3h-0.3z"/><path class="a" d="m78.3 83.6h0.4v8.4h-0.4z"/><g style="opacity:.4"><path class="a" d="m74.4 113.5l-0.1-12v-3.7l-0.4-0.5 0.4-0.8v-0.7l-1-1.3-0.1-2 0.7-0.5h0.4v-8.3l-0.4-0.5 0.4-0.8v-0.6l-1-1.3-0.1-2 0.6-0.4 0.5-0.1v-9.4l-0.4-0.6 0.4-0.2 1.8-11.2h0.3l-0.9 11.4-0.2 9.9 0.5 0.9 0.1 10.7 1 3-1 1.5-0.5 1.5-0.2 17.7"/></g><path class="a" d="m74.1 68.6h0.3v9.4h-0.3z"/><path class="a" d="m78.4 68.6h0.4v9.4h-0.4z"/><path fill-rule="evenodd" class="a" d="m78.7 68.8l-1.2-0.6h-2.2l-1.2 0.6-0.4-0.9 1.5-0.7h2.5l1.4 0.7-0.4 0.9q0 0 0 0zm-4.5-0.7q0 0 0 0zm0.1 0.2l1-0.4h2.3l0.9 0.4 0.1-0.2-1-0.5h-2.4l-1 0.5q0 0 0 0z"/><path class="a" d="m74.4 67.9l-0.3-0.1 1.9-11.3h1.2l1.6 11.3-0.4 0.1-1.5-11.1h-0.6z"/><path class="a" d="m76.8 56.7l-0.1-0.2h-0.3l-0.1 0.2-0.3-0.1 0.1-0.5h0.9l0.2 0.5z"/><path class="a" d="m76.7 55.3v0.4q0.1 0 0.1 0.2 0 0.1-0.1 0.2l0.1 0.2h-0.5v-0.2q-0.1-0.1-0.1-0.2 0-0.1 0.1-0.2l0.1-0.4q-0.2 0-0.2-0.2 0-0.2 0.2-0.3v-0.2q-0.2-0.1-0.2-0.3c0-0.2 0.1-0.3 0.3-0.3v-0.7h0.1v0.7c0.1 0 0.2 0.1 0.2 0.3 0 0.1 0 0.2-0.2 0.3l0.1 0.2q0.1 0.1 0.1 0.3 0 0.2-0.1 0.2z"/><path class="a" d="m190.1 162.8l-1.4-45h0.3l1.4 45z"/><path fill-rule="evenodd" class="a" d="m173.2 118.6l-1-1.3 5.6-1 12.3 0.2-0.9 1.5-0.1-0.1v0.1h-11.1l-4.8 0.6q0 0 0 0zm-0.4-1.1l0.6 0.7 4.6-0.5h11l0.5-0.9-11.7-0.1c0 0-5 0.8-5 0.8z"/><path class="a" d="m89.1 135.5h-0.3l0.3-19.2h0.3z"/><path class="a" d="m90 163.4l0.9-48.3h0.4l-0.9 48.3z"/><g style="opacity:.4"><path class="a" d="m86 163.4l0.5-26.4 0.8-1.8h-2.5l0.4-5.6-2.4 2 1.9-6.7-2.9-2 1.3-2.6h-1.3v-1.9h2.5l4.3-3-0.3-0.3 2.2-1.4 0.6 1.5-0.8 48.4z"/></g><path class="a" d="m102 163.8h-0.4l0.7-41.2-0.7-1.3 2.5-1.3h0.1l81.2 2.1-1.4 1.3 1.2 39.5-0.4 0.1-1.1-39.7 0.9-0.9-80.4-2-2.2 1.1 0.6 1.1z"/><path fill-rule="evenodd" class="a" d="m182.4 102h-3.1l-1.7 0.8-0.5-1.2 1.9-1 3.7 0.1 1.9 0.9c0 0-0.5 1.2-0.5 1.2zm-4.9-0.2q0 0 0 0zm0.3 0.5l1.4-0.7h3.3l1.4 0.7 0.2-0.5-1.5-0.8h-3.5c0 0-1.6 0.8-1.6 0.8z"/><path class="a" d="m173.5 117.2l4.1-14.7 0.3 0.1-4 14.7z"/><path class="a" d="m171.5 121.9l-0.3-0.1 0.5-1.3-2.3-0.6h-13.5l-2.2 0.9 0.2 0.5-0.4 0.1-0.3-0.8 2.6-1h13.6l2.8 0.6z"/><path class="a" d="m153.5 121.6l-0.1-0.3 2.4-1h13.6l2.4 0.5-0.1 0.4-2.3-0.6h-13.5z"/><path class="a" d="m156.5 119.9l-0.4-0.1c0.6-3.2 3.3-5.6 6.6-5.6 3.3 0 6 2.3 6.6 5.5l-0.3 0.1c-0.6-3-3.2-5.2-6.3-5.2-3 0-5.7 2.2-6.2 5.3z"/><path class="a" d="m150.4 121.2l-0.3-0.1 0.5-1.3-2.4-0.6h-13.5l-2.1 0.9 0.1 0.5-0.3 0.1-0.3-0.8 2.6-1h13.6l2.8 0.6z"/><path class="a" d="m132.4 120.9l-0.1-0.3 2.4-1h13.6l2.3 0.5v0.4l-2.4-0.6h-13.5z"/><path class="a" d="m135.3 119.2l-0.3-0.1c0.5-3.2 3.3-5.6 6.6-5.6 3.3 0 6 2.3 6.6 5.5l-0.4 0.1c-0.5-3-3.2-5.2-6.2-5.2-3.1 0-5.7 2.2-6.3 5.3z"/><path class="a" d="m128.6 120.9l-0.4-0.1 0.6-1.4-2.4-0.5h-13.5l-2.2 0.9 0.2 0.4-0.3 0.1-0.3-0.7 2.6-1.1h13.6l2.8 0.7z"/><path class="a" d="m110.6 120.5l-0.2-0.3 2.5-1h13.6l2.3 0.6-0.1 0.3-2.3-0.5h-13.5z"/><path class="a" d="m113.5 118.8h-0.3c0.5-3.3 3.3-5.6 6.6-5.6 3.2 0 5.9 2.3 6.5 5.4l-0.3 0.1c-0.6-3-3.2-5.1-6.2-5.1-3.1 0-5.8 2.2-6.3 5.2z"/><path class="a" d="m173.1 118.4l-4.5-0.2v-0.3l4.5 0.1z"/><path class="a" d="m157 117.9l-9.5-0.2v-0.4l9.5 0.3z"/><path class="a" d="m135.8 117.4l-10.2-0.2v-0.4l10.2 0.3z"/><path class="a" d="m114.1 116.9l-10.7-0.3v-0.4l10.7 0.3z"/><path class="a" d="m168.9 119v-0.3l4.2 0.1v0.3z"/><path class="a" d="m147.8 118.5v-0.4l8.9 0.3v0.3z"/><path class="a" d="m125.9 117.9v-0.3l9.6 0.3v0.3z"/><path class="a" d="m103.4 117.4v-0.4l10.3 0.3v0.4z"/><path class="a" d="m162.9 113.5v0.3q0.1 0.1 0.1 0.2 0 0.2-0.1 0.2v0.2h-0.4v-0.2q-0.1 0-0.1-0.2 0-0.1 0.1-0.2l0.1-0.3q-0.2-0.1-0.2-0.2 0-0.2 0.2-0.3v-0.3q-0.2 0-0.2-0.2c0-0.2 0.1-0.3 0.3-0.3v-0.7h0.1v0.7c0.1 0 0.2 0.1 0.2 0.3 0 0.1-0.1 0.2-0.2 0.2v0.3q0.2 0.1 0.2 0.3 0 0.1-0.1 0.2z"/><path class="a" d="m141.7 112.9l0.1 0.2q0.1 0.1 0.1 0.3 0 0.1-0.1 0.2v0.2h-0.4v-0.2q-0.1-0.1-0.1-0.2 0-0.2 0.1-0.2v-0.3q-0.1-0.1-0.1-0.3 0-0.2 0.2-0.3v-0.2q-0.2-0.1-0.2-0.3c0-0.1 0.1-0.2 0.2-0.3l0.1-0.7 0.1 0.7c0.1 0.1 0.2 0.2 0.2 0.3 0 0.1-0.1 0.3-0.2 0.3v0.2q0.2 0.1 0.2 0.3 0 0.2-0.2 0.3z"/><path class="a" d="m119.9 112.3v0.3q0.1 0.1 0.2 0.3 0 0.1-0.1 0.2v0.2h-0.5l0.1-0.2q-0.1-0.1-0.1-0.2 0-0.2 0.1-0.3v-0.3q-0.1-0.1-0.1-0.2 0-0.2 0.1-0.3l0.1-0.2q-0.2-0.1-0.2-0.3c0-0.1 0.1-0.2 0.2-0.3v-0.7h0.1v0.7c0.2 0.1 0.3 0.2 0.3 0.3 0 0.1-0.1 0.2-0.2 0.3v0.2q0.1 0.1 0.2 0.3-0.1 0.1-0.2 0.2z"/><path class="a" d="m70.6 118.1l-0.3-0.1c0.5-3 3.1-5.2 6.1-5.2 3.1 0 5.6 2.2 6.1 5.1l-0.3 0.1c-0.5-2.8-3-4.8-5.8-4.8-2.8 0-5.3 2.1-5.8 4.9z"/><path class="a" d="m76.5 112.1l0.1 0.2q0.1 0.1 0.1 0.2 0 0.2-0.1 0.2v0.2h-0.4v-0.2q-0.1 0-0.1-0.2 0-0.1 0.1-0.2l0.1-0.3q-0.2 0-0.2-0.2 0-0.1 0.2-0.2v-0.3q-0.2 0-0.2-0.2c0-0.1 0.1-0.2 0.2-0.3l0.1-0.6 0.1 0.6c0.1 0.1 0.2 0.2 0.2 0.3 0 0.1-0.1 0.2-0.2 0.2v0.3q0.2 0.1 0.2 0.2 0 0.2-0.2 0.3z"/><path class="a" d="m108.9 116.8l-0.3-0.2c3.3-5 8.8-7.9 14.7-7.9 5.4 0 10.5 2.5 13.9 6.7l-0.3 0.2c-3.3-4.1-8.3-6.5-13.6-6.5-5.8 0-11.2 2.8-14.5 7.6q0 0 0.1 0.1z"/><path class="a" d="m104.4 164.1l-2.7-0.1-11.5-0.3h-8.2l-2.3-0.1 0.1-0.4 2.2 0.2h8.2l11.5 0.2 2.3 0.1 0.6-41.9-0.6-1.4 0.3-0.2 0.7 1.5v0.1z"/><g style="opacity:.4"><path class="a" d="m99 120.3h5.8v43.6h-5.8z"/><g clip-path="url(#cp8)"><path class="a" d="m99 120.3h5.8v43.6h-5.8z"/><g clip-path="url(#cp9)"><path class="a" d="m96.5 163.7l0.4-31.7-0.9-0.2 2.5-9.6h0.7l-0.5-0.8 2.4-1.1 0.7 1.5-0.6 42.1z"/></g></g></g><path class="a" d="m107.8 161.6h-0.3v-24.3h4.8v0.3h-4.5z"/><path class="a" d="m140.6 138h-3.8v-2.2c0-3.5-1.6-5.8-5.1-7-3.4 1.2-5 3.5-5 7.2v1.9l-4.2-0.1v-2.2c0-3.5-1.7-5.8-5.1-7-3.4 1.2-5.1 3.5-5 7.1v1.8h-0.4v-1.8c0-3.7 1.7-6.2 5.3-7.5h0.1c3.7 1.3 5.4 3.7 5.4 7.4v1.8l3.6 0.1v-1.5c-0.1-3.8 1.7-6.3 5.3-7.6h0.1c3.6 1.3 5.4 3.8 5.4 7.4v1.8l3.4 0.1v0.3z"/><path class="a" d="m181.1 160.6l-0.7-22.1-2.9-0.1v-2.3c0-3.2-1.5-5.4-4.7-6.5-3.2 1.1-4.7 3.3-4.7 6.7v1.9h-3.9v-2.1c0-3.2-1.6-5.4-4.8-6.5-3.2 1.1-4.7 3.3-4.6 6.7v1.7h-4.1v-2.2c0-3.5-1.7-5.8-5.2-7-3.4 1.2-5 3.5-4.9 7.2v1.7h-0.4v-1.7c-0.1-3.8 1.7-6.3 5.3-7.6h0.1c3.6 1.3 5.4 3.8 5.4 7.4v1.8l3.4 0.1v-1.4c0-3.5 1.6-5.9 5-7.1h0.1c3.4 1.2 5 3.5 5 6.9v1.7h3.3v-1.5c-0.1-3.5 1.6-5.9 4.9-7.1h0.1c3.4 1.3 5.1 3.5 5.1 6.9v2h2.9v0.2l0.6 22.4h-0.3q0 0 0-0.1z"/><path class="a" d="m184.2 137.7h-6.1v-1.7c0-3.5-1.7-5.9-5.2-7.2h-0.2-0.1c-3.5 1.2-5.2 3.7-5.1 7.3v1.3h-2.7v-1.4c0-3.5-1.8-5.9-5.3-7.2h-0.1-0.2c-3.4 1.2-5.2 3.7-5.1 7.3v1.2l-2.8-0.1v-1.5c-0.1-3.8-1.9-6.3-5.6-7.7h-0.2-0.1c-3.7 1.3-5.6 4-5.5 7.8v1.4h-2.5v-1.5c0-3.7-1.9-6.3-5.6-7.7h-0.1-0.2c-3.7 1.3-5.5 4-5.4 7.8v1.3l-3-0.1v-1.6c0-3.7-1.9-6.2-5.6-7.6h-0.2-0.1c-3.7 1.3-5.5 4-5.5 7.8v1.3h-7.1v-0.4h6.8v-0.9c-0.1-4 1.8-6.7 5.7-8.1l0.2-0.1 0.3 0.1c3.9 1.4 5.8 4.1 5.8 7.9v1.3h2.3v-0.9c0-4 1.9-6.7 5.7-8.1l0.3-0.1 0.3 0.1c3.8 1.4 5.8 4.1 5.8 8v1.2h1.8v-1.1c-0.1-4 1.8-6.7 5.6-8.1l0.3-0.1 0.3 0.1c3.9 1.4 5.8 4.1 5.8 8v1.2h2.2v-0.8c-0.1-3.8 1.7-6.3 5.3-7.6l0.3-0.1 0.3 0.1c3.6 1.3 5.4 3.8 5.4 7.5v1.1h2v-1c0-3.8 1.8-6.3 5.4-7.6l0.2-0.1 0.3 0.1c3.6 1.3 5.5 3.8 5.5 7.5v1.3l5.8 0.1v0.3q-0.1 0-0.1 0z"/><path class="a" d="m104.7 126.3v-0.4l79.2 1.7v0.3z"/><path class="a" d="m164.4 138.2h-1.7v-0.2c0.3-4-1.1-6.7-4.3-8.1l0.2-0.3c3.2 1.4 4.8 4.2 4.5 8.2h1.3c0 0 0 0.4 0 0.4z"/><path class="a" d="m177.7 138.3h-1.7v-0.2c0.4-4-1-6.6-4.2-8l0.1-0.4c3.3 1.5 4.8 4.3 4.5 8.3h1.3c0 0 0 0.3 0 0.3z"/><path class="a" d="m150.8 138h-1.5v-0.2c0.3-4.4-1.2-7.2-4.6-8.7l0.1-0.4c3.5 1.6 5.1 4.6 4.9 8.9h1.1c0 0 0 0.4 0 0.4z"/><path class="a" d="m137 138h-1.5v-0.2c0.3-4.5-1.2-7.4-4.6-8.7l0.1-0.4c3.5 1.4 5.1 4.4 4.8 8.9h1.2c0 0 0 0.4 0 0.4z"/><path class="a" d="m122.7 137.8h-1.1v-0.2c0.3-4.7-1.4-7.6-5-8.8l0.2-0.3c3.6 1.2 5.4 4.2 5.1 8.9h0.8c0 0 0 0.4 0 0.4z"/><g style="opacity:.6"><path class="a" d="m127.1 160.4v-3.7h-1.2c0 0-0.2-4.6-0.9-5.6l0.1-11.3 0.4-1.4v-0.7h1.1c-0.3-4.3 0.8-7.5 4.3-8.6 3.9 1.2 5.1 4.4 4.7 8.7h0.8l0.1 0.4 0.8 1.3 0.1 11.1-5-2.7-2.2 3.4c0 0-0.4 4.7-0.7 5.2l-0.8-0.1v4.1l-1.6-0.1q0 0 0 0z"/></g><g style="opacity:.6"><path class="a" d="m113.2 160.5l-0.1-4.3h-1.2c0 0-0.4-5.7-1.1-6.7v-9.8l0.4-2.2h0.6 0.4c-0.6-4.6 1.2-7.8 4.7-8.9 3.9 1.2 5.3 4.7 4.9 9l0.5 0.1 0.9 1.9 0.1 10.6-5-2.7-2.1 3.3c0 0-0.5 4.7-0.7 5.2l-0.8-0.1-0.1 4.6h-1.4q0 0 0 0z"/></g><path class="a" d="m123.4 159.6h-0.4l0.1-20-0.9-1.4v-0.5h0.3v0.4l0.9 1.4v0.1z"/><path class="a" d="m125.7 138.5h-2.4l-1-0.1 0.1-0.4 1 0.1h2v-0.4h0.3z"/><path class="a" d="m125.2 159.6h-0.4l0.1-19.9 0.5-1.5 0.3 0.1-0.5 1.5z"/><g style="opacity:.4"><path class="a" d="m122.3 137.6h2.1v2.2h-2.1z"/><g clip-path="url(#cp10)"><path class="a" d="m122.3 137.6h2.1v2.2h-2.1z"/><g clip-path="url(#cp11)"><path class="a" d="m124.2 137.6l-0.7 0.6 0.9 0.1-1.1 1.5-1-1.6v-0.6z"/></g></g></g><path fill-rule="evenodd" class="a" d="m122.5 159.4h3v1.6c0 0-3 0-3 0zm0.4 0.4v0.9h2.3v-0.9z"/><path class="a" d="m137.5 159.4h-0.4l0.1-19.8-0.9-1.4v-0.5h0.3v0.4l0.9 1.4v0.1z"/><path class="a" d="m139.8 138.5h-2.4l-1-0.1 0.1-0.4 1 0.1h2v-0.4h0.3z"/><path class="a" d="m139.3 159.5h-0.4l0.1-19.8 0.5-1.5 0.3 0.1-0.5 1.5z"/><g style="opacity:.4"><path class="a" d="m136.4 137.8h2.1v2h-2.1z"/><g clip-path="url(#cp12)"><path class="a" d="m136.4 137.8h2.1v2h-2.1z"/><g clip-path="url(#cp13)"><path class="a" d="m138.2 137.9l-0.7 0.3 1 0.1-1.1 1.5-1-1.6v-0.4z"/></g></g></g><path fill-rule="evenodd" class="a" d="m136.7 159.3h3v1.6c0 0-3 0-3 0.1zm0.4 0.3v1l2.3-0.1v-0.9z"/><path class="a" d="m151.4 159.4h-0.4l0.1-19.6-0.9-1.4v-0.5h0.3v0.4l0.9 1.4v0.1z"/><path class="a" d="m153.7 138.6h-2.4l-0.9-0.1v-0.3l1 0.1h2v-0.4h0.3z"/><path class="a" d="m153.2 159.4h-0.4l0.1-19.5 0.5-1.5 0.3 0.1-0.5 1.5z"/><g style="opacity:.4"><path class="a" d="m150.3 137.8h2.1v2.2h-2.1z"/><g clip-path="url(#cp14)"><path class="a" d="m150.3 137.8h2.1v2.2h-2.1z"/><g clip-path="url(#cp15)"><path class="a" d="m152.2 137.8l-0.7 0.6 0.9 0.1-1.1 1.5-1-1.6v-0.6z"/></g></g></g><path fill-rule="evenodd" class="a" d="m150.6 160.9v-1.7h3v1.7zm0.3-1.3v0.9h2.3v-0.9z"/><path class="a" d="m164.9 159.4h-0.4l0.1-19.2-0.9-1.4v-0.7h0.4v0.6l0.8 1.4v0.1z"/><path class="a" d="m167.2 139h-2.3l-1-0.1v-0.3l1 0.1h2v-0.7h0.3z"/><path class="a" d="m166.7 159.4h-0.4l0.1-19.1 0.5-1.5 0.3 0.1-0.4 1.5z"/><g style="opacity:.4"><path class="a" d="m163.9 138h2.1v2.4h-2.1z"/><g clip-path="url(#cp16)"><path class="a" d="m163.9 138h2.1v2.4h-2.1z"/><g clip-path="url(#cp17)"><path class="a" d="m165.9 138l-0.9 0.8 1 0.1-1.2 1.5-0.9-1.6v-0.8z"/></g></g></g><path fill-rule="evenodd" class="a" d="m164.2 160.9v-1.7h3v1.7zm0.3-1.3v0.9h2.3v-0.9z"/><path class="a" d="m109.1 159.6h-0.4l0.1-20-0.9-1.4v-0.6h0.3v0.5l0.9 1.4z"/><path class="a" d="m111.4 138.4h-2.4l-1-0.1 0.1-0.4 1 0.1h2v-0.4h0.3z"/><path class="a" d="m110.9 159.6h-0.4l0.1-20 0.5-1.5 0.3 0.2-0.5 1.4z"/><g style="opacity:.4"><path class="a" d="m109.9 137.6l-0.8 0.6h1l-1.1 1.5-1-1.6v-0.5z"/></g><path fill-rule="evenodd" class="a" d="m108.4 159.5h3v1.6c0 0-3 0-3 0zm0.4 0.4v0.9h2.3v-0.9z"/><path class="a" d="m178.1 159.3l-0.6-19.1-0.9-1.4-0.1-0.5h0.4v0.4l0.9 1.4 0.7 19.2z"/><path class="a" d="m177.7 139h-1v-0.4l1 0.1 2-0.1v-0.4h0.4v0.7z"/><path class="a" d="m179.9 159.3l-0.6-19.1 0.4-1.5 0.4 0.1-0.4 1.5 0.6 19z"/><g style="opacity:.4"><path class="a" d="m176.6 138.2h2.2v2.2h-2.2z"/><g clip-path="url(#cp18)"><path class="a" d="m176.6 138.2h2.2v2.2h-2.2z"/><g clip-path="url(#cp19)"><path class="a" d="m178.6 138.2l-0.8 0.6h1l-1.1 1.6-1-1.6-0.1-0.6z"/></g></g></g><path fill-rule="evenodd" class="a" d="m177.7 160.8v-1.6h3v1.6zm0.4-1.3v0.9h2.3v-0.9c0 0-2.3 0-2.3 0z"/><path fill-rule="evenodd" class="a" d="m99.9 133.5h-6.6v-8.6h6.6zm-6.3-0.3h5.9v-7.9h-5.9z"/><path class="a" d="m94.4 132.5v-1.5c-0.1-2.3 0.6-3.8 2.4-4.6 1.5 0.7 2.2 2.2 2.2 4.2v1.9z"/><g style="opacity:.4"><path class="a" d="m94.5 125.9h4.7l-0.3 3.5v-3.3h-4.4z"/></g><path fill-rule="evenodd" class="a" d="m99.9 147.1h-6.6v-8.6h6.6zm-6.3-0.4h5.9v-7.9h-5.9z"/><path class="a" d="m94.4 146v-1.5c-0.1-2.3 0.6-3.8 2.4-4.6 1.5 0.8 2.2 2.2 2.2 4.2v1.9z"/><path class="a" d="m93.1 163.6v-7.1c-0.2-2.8 0.8-4.9 3.1-5.8 1.9 0.9 2.8 2.8 2.8 5.4v7.6l-5.9-0.1z"/><g style="opacity:.6"><path class="a" d="m92.9 156.4v7.2h-0.5v-7.1c-0.1-2.8 0.8-4.9 3.1-5.8h0.1c-2 1-2.9 3-2.7 5.7z"/></g><g style="opacity:.4"><path class="a" d="m94.5 139.5h4.7l-0.3 3.4v-3.3h-4.4z"/></g><path class="a" d="m32.6 149.6h-2.7l0.4-9.8-1.7-1.3h0.5l53.2-3.2h6.8v0.3h-6.8l-52.7 3.2 1.1 0.8v0.1l-0.4 9.5h2.3z"/><path class="a" d="m36.2 135.2h-0.4l0.3-6.7-0.2-0.4-1.5-0.9h0.5l54.2-5.4 0.1 0.3-53.7 5.4 0.7 0.4 0.2 0.5z"/><path class="a" d="m36.1 128.2l-0.1-0.4 53.1-5.2v0.4z"/><g style="opacity:.4"><path class="a" d="m84.7 124.9l-48.5 4.3-0.1-1.1-1.2-0.8 46.9-4.5 2.9 2.3"/></g><path class="a" d="m76.9 135.8l-0.3-0.1c0.2-2 1.9-3.4 3.9-3.5 1.9 0 3.7 1.3 4.1 3.2l-0.4 0.1c-0.3-1.8-1.9-3-3.7-2.9-1.8 0-3.3 1.4-3.6 3.2z"/><path class="a" d="m85 122.4v-1.6l-0.7-0.5 0.1-2.1 4.2-2.8 0.2 0.3-4 2.7-0.1 1.8 0.6 0.4 0.1 1.8z"/><g style="opacity:.4"><path class="a" d="m82.4 121.8l-9.4-0.3-1.4 1.3-10.6 0.8v-1l-0.9-0.1v-0.4l-0.7-0.4 13.4-1.2 9.6 1z"/></g><path class="a" d="m70.6 136.2h-0.3c0-2.1 1.8-3.8 3.9-3.8 1.3 0 2.6 0.6 3.3 1.8l-0.3 0.2c-0.7-1.1-1.8-1.7-3-1.7-1.9 0-3.5 1.6-3.6 3.5z"/><path class="a" d="m64.7 136.6h-0.4c0-2.2 1.8-3.9 3.9-3.9 1.2 0 2.2 0.5 3 1.4l-0.3 0.2c-0.7-0.8-1.6-1.2-2.7-1.2-1.9 0-3.5 1.5-3.5 3.5z"/><path class="a" d="m58.7 137h-0.3c0-2.1 1.7-3.8 3.9-3.8 1.1 0 2.2 0.4 2.9 1.3l-0.2 0.2c-0.7-0.7-1.7-1.2-2.7-1.2-2 0-3.6 1.6-3.6 3.5z"/><path class="a" d="m53.1 137.4h-0.3c0-2.1 1.8-3.8 3.9-3.8 1 0 2 0.4 2.7 1.1l-0.2 0.3c-0.7-0.7-1.6-1.1-2.5-1.1-1.9 0-3.5 1.6-3.6 3.5z"/><path class="a" d="m47.7 137.6h-0.3c0.1-2.1 1.8-3.7 3.9-3.7 1 0 2 0.4 2.7 1.1l-0.2 0.3c-0.7-0.7-1.6-1.1-2.5-1.1-1.9 0-3.5 1.5-3.6 3.4z"/><path class="a" d="m42.5 137.8h-0.3c0.1-2 1.7-3.5 3.7-3.5 1 0 1.9 0.4 2.6 1l-0.3 0.3c-0.6-0.6-1.4-1-2.3-1-1.8 0-3.2 1.4-3.4 3.2z"/><path class="a" d="m37.5 138.1h-0.4c0.1-1.9 1.8-3.5 3.7-3.5 1 0 1.9 0.4 2.6 1.1l-0.3 0.2c-0.6-0.6-1.4-0.9-2.3-0.9-1.8 0-3.2 1.4-3.3 3.1z"/><path class="a" d="m32.8 138.3h-0.4c0.1-1.8 1.7-3.3 3.5-3.3 0.9 0 1.7 0.4 2.4 1l-0.3 0.2c-0.5-0.5-1.3-0.8-2.1-0.8-1.7 0-3 1.3-3.1 2.9q0 0 0 0z"/><path class="a" d="m77.7 133.9h-0.4v-5.4h3v3.9h-0.4v-3.6h-2.2z"/><path class="a" d="m78.1 133.4v-4.2h1.5v3.4c-0.5 0-1 0.2-1.3 0.6q-0.1 0.1-0.2 0.2z"/><path class="a" d="m71.5 133.9h-0.4v-5.4h3v3.9h-0.3v-3.6h-2.3z"/><path class="a" d="m71.9 133.4v-4.2h1.5v3.4c-0.5 0-1 0.2-1.3 0.6q-0.1 0.1-0.2 0.2z"/><path class="a" d="m65.7 134h-0.3v-4.8h2.9v3.7h-0.3v-3.3h-2.3z"/><path class="a" d="m66.1 133.5v-3.5h1.6v2.9c-0.5 0.1-1 0.2-1.3 0.6-0.1 0-0.2 0-0.3 0z"/><path class="a" d="m60 134.3h-0.4v-4.6h3v3.6h-0.4v-3.3h-2.2z"/><path class="a" d="m60.4 133.9v-3.4h1.5v2.9c-0.5 0-1 0-1.3 0.4-0.1 0-0.1 0-0.2 0.1z"/><path class="a" d="m54.5 134.7h-0.4v-4.3h2.8v3.4h-0.4v-3h-2z"/><path class="a" d="m54.8 134.3v-3.2h1.5v2.7c-0.5 0.1-1 0.1-1.3 0.4 0 0.1-0.1 0-0.2 0.1z"/><path class="a" d="m49.2 134.9h-0.4v-4h2.6v3.2h-0.4v-2.8h-1.8z"/><path class="a" d="m49.5 134.5v-2.9h1.3v2.5c-0.4 0-0.8 0-1.2 0.3 0 0.1-0.1 0.1-0.1 0.1z"/><path class="a" d="m44 135.2h-0.4v-4h2.6v3.2h-0.3v-2.8h-1.9z"/><path class="a" d="m44.3 134.9v-2.9h1.3v2.5c-0.4 0-0.8 0-1.1 0.3-0.1 0-0.1 0-0.2 0.1z"/><path class="a" d="m38.9 135.5h-0.3v-3.8h2.6v3.2h-0.4v-2.9h-1.9z"/><path class="a" d="m39.3 135.2v-2.8h1.3v2.5c-0.4 0-0.9 0-1.2 0.3 0 0-0.1-0.1-0.1 0z"/><path class="a" d="m29.6 139.2v-0.3l53-3.1h6.2v0.4h-6.2z"/><path class="a" d="m30.2 139.7v-0.4l52.4-2.9h5.9v0.3h-5.9z"/><g style="opacity:.4"><path class="a" d="m82.7 137l-0.8 1-51.4 2.5v-0.8l-1.4-1.1 53.4-2.7z"/></g><path class="a" d="m82.2 163.4h-0.3l0.7-26.2-0.5-1.7 0.4-0.1 0.4 1.8z"/><path class="a" d="m36.4 149.6l-1.5-0.1 0.1-4.6q0-2.2-1.5-3c-1.2 0.6-1.7 1.6-1.7 3.3v4.1h-0.4l0.1-4.1q-0.1-2.7 1.9-3.6l0.1-0.1 0.1 0.1q1.8 0.9 1.7 3.4v4.2h1.1l1-0.1 0.1 0.3-1.1 0.2q0 0 0 0z"/><path class="a" d="m35.1 145v4.4h-2.6v-3.8c-0.1-1.6 0.4-2.7 1.7-3.3q0.2 0.1 0.3 0.2c0.2 0.1 0.1 0.3 0.3 0.5 0.3 0.5 0.4 1.2 0.3 2z"/><path class="a" d="m41.3 149.5l-1.5-0.1 0.1-4.5q0-2.2-1.5-3.1c-1.2 0.6-1.7 1.6-1.7 3.3v4.1h-0.4l0.1-4.1q-0.1-2.7 1.9-3.6l0.1-0.1 0.1 0.1q1.8 0.9 1.7 3.4v4.2h1.1l1-0.3 0.1 0.4-1.1 0.3q0 0 0 0z"/><path class="a" d="m40.1 144.9l-0.1 4.4h-2.6v-3.8c-0.1-1.6 0.4-2.7 1.7-3.2q0.2 0 0.3 0.1c0.2 0.2 0.2 0.3 0.3 0.5 0.3 0.6 0.4 1.2 0.4 2z"/><path class="a" d="m41.7 149.3h-0.4l0.1-4.5q-0.2-2.7 1.9-3.6h0.1 0.1q1.7 0.9 1.7 3.4l-0.1 4.2 1.2 0.1 1-0.2v0.4l-1 0.1h-1.5v-4.6c0.1-1.5-0.4-2.5-1.4-3-1.2 0.5-1.8 1.6-1.7 3.2 0 0 0 4.5 0 4.5z"/><path class="a" d="m45 144.6v4.5h-2.6v-3.9c-0.1-1.6 0.4-2.7 1.7-3.2q0.1 0.1 0.3 0.2c0.2 0.1 0.1 0.3 0.3 0.4 0.3 0.6 0.3 1.2 0.3 2z"/><path class="a" d="m51.1 149.2l-1.5-0.1 0.1-4.6q0-2.2-1.5-3c-1.2 0.5-1.7 1.6-1.7 3.2v4.4h-0.4l0.1-4.4q-0.1-2.7 1.9-3.6h0.1 0.1q1.8 1 1.7 3.4v4.3h1l1.9-0.5 0.1 0.4-1.9 0.5q0 0 0 0z"/><path class="a" d="m49.8 144.6v4.4h-2.6v-3.9c-0.1-1.5 0.4-2.7 1.7-3.2q0.2 0.1 0.3 0.2c0.2 0.1 0.1 0.3 0.3 0.4 0.3 0.6 0.4 1.2 0.3 2.1z"/><path class="a" d="m56.9 149.3l-1.6-0.1v-5q0-2.2-1.5-3.1c-1.2 0.6-1.7 1.6-1.7 3.3v4.3h-0.4l0.1-4.3q-0.1-2.7 1.9-3.6l0.1-0.1 0.1 0.1q1.8 0.9 1.7 3.4v4.6l1.3 0.1 1.5-0.4 0.1 0.3-1.6 0.5q0 0 0 0z"/><path class="a" d="m55.4 144.2v4.4h-2.6v-3.8c-0.1-1.6 0.4-2.7 1.7-3.2q0.2 0 0.3 0.1c0.2 0.2 0.2 0.3 0.3 0.5 0.3 0.6 0.4 1.2 0.3 2z"/><path class="a" d="m62.8 149.4l-1.9-0.4v-4.9c0.1-1.6-0.5-2.7-1.6-3.3-1.3 0.6-1.9 1.8-1.8 3.5v4.7h-0.4l0.1-4.7q-0.2-2.9 2.1-3.8v-0.1l0.1 0.1q1.9 1 1.9 3.6l-0.1 4.6 1.6 0.3 1.1-0.2 0.1 0.3-1.2 0.3q0 0 0 0z"/><path class="a" d="m61.1 144.2v4.4l-2.8 0.1v-3.9c-0.1-1.7 0.4-2.9 1.8-3.5q0.2 0.1 0.3 0.2c0.2 0.1 0.2 0.3 0.3 0.5 0.3 0.6 0.4 1.3 0.4 2.2z"/><path class="a" d="m68.3 149.3h-1.7l0.1-5.4c0-1.8-0.5-2.9-1.8-3.6-1.4 0.7-2.1 1.9-2 3.9v5h-0.4l0.1-5q-0.2-3.2 2.3-4.2v-0.1l0.1 0.1q2.1 1 2 3.9v5l1.3 0.1 1.3-0.2v0.4c0 0-1.3 0.1-1.3 0.1z"/><path class="a" d="m66.9 144l-0.1 5.2h-3v-4.6c-0.1-1.8 0.5-3.1 1.9-3.8q0.2 0.1 0.4 0.3c0.2 0.1 0.2 0.3 0.3 0.5 0.4 0.7 0.5 1.4 0.5 2.4z"/><path class="a" d="m74.1 149.2l-1.7-0.1v-5.4c0.1-1.7-0.5-2.9-1.7-3.6-1.5 0.7-2.1 1.9-2 3.9l-0.1 5.2h-0.3v-5.2q-0.1-3.2 2.3-4.2h0.1q2.1 1.1 2.1 3.9l-0.1 5.1h1.4l1.4-0.1v0.4c0 0-1.4 0.1-1.4 0.1z"/><path class="a" d="m72.6 143.8l-0.1 5.2h-3v-4.5c-0.1-1.9 0.5-3.2 2-3.8q0.2 0.1 0.4 0.2c0.2 0.1 0.1 0.3 0.3 0.5 0.3 0.7 0.4 1.4 0.4 2.4z"/><path class="a" d="m80 149.2l-1.7-0.1v-5.4c0.1-1.7-0.5-2.9-1.7-3.6-1.5 0.7-2.1 1.9-2 3.9l-0.1 5h-0.3v-5q-0.1-3.2 2.3-4.2h0.1 0.1q2.1 1.1 2 3.9l-0.1 5.1h1.4l1.1-0.1v-12h0.3v12.3c0 0-1.4 0.2-1.4 0.2z"/><path class="a" d="m78.5 143.8v5.2h-3.1v-4.5c-0.1-1.9 0.5-3.2 2-3.8q0.2 0.1 0.4 0.2c0.2 0.1 0.1 0.3 0.3 0.5 0.3 0.7 0.4 1.4 0.4 2.4z"/><path class="a" d="m31.1 161.6h-0.3v-11.1l-0.5-0.8v-0.3h0.4v0.2l0.4 0.8z"/><path class="a" d="m32.5 149.9h-1.5l-0.5-0.1v-0.3h0.5 1.1v-0.1h0.4z"/><path class="a" d="m32.1 161.6h-0.3v-11.1l0.3-0.8 0.3 0.1-0.2 0.8z"/><g style="opacity:.4"><path class="a" d="m31.5 149.3l-0.4 0.4h0.5l-0.6 0.9-0.5-0.9-0.1-0.4z"/></g><path fill-rule="evenodd" class="a" d="m32.4 162.8h-1.9v-1.3h1.9zm-1.5-0.4h1.2v-0.7h-1.2z"/><path class="a" d="m35.9 161.7h-0.3v-11.2l-0.5-0.8v-0.3h0.4v0.2l0.5 0.8v0.1z"/><path class="a" d="m37.3 149.9h-1.4-0.6v-0.4l0.6 0.1h1v-0.3h0.4z"/><path class="a" d="m37 161.7h-0.4l0.1-11.2 0.2-0.8 0.4 0.1-0.3 0.8z"/><g style="opacity:.4"><path class="a" d="m36.4 149.4l-0.5 0.3 0.6 0.1-0.7 0.8-0.5-0.9v-0.3z"/></g><path fill-rule="evenodd" class="a" d="m37.2 162.9h-1.8v-1.4h1.8zm-1.5-0.4h1.2v-0.6h-1.2z"/><path class="a" d="m41 161.7h-0.4l0.1-11.1-0.5-0.8v-0.5h0.3v0.4l0.5 0.8z"/><path class="a" d="m42.3 150h-1.4l-0.6-0.1 0.1-0.3h0.5 1.1v-0.5h0.3z"/><path class="a" d="m42 161.7h-0.3v-11.1l0.3-0.9 0.3 0.1-0.2 0.9z"/><g style="opacity:.4"><path class="a" d="m41.4 149.3l-0.4 0.5h0.5l-0.6 0.9-0.6-1v-0.4z"/></g><path fill-rule="evenodd" class="a" d="m42.3 162.9h-1.9v-1.4h1.9zm-1.5-0.3h1.1v-0.7h-1.1z"/><path class="a" d="m46.1 161.8h-0.4l0.1-11.2-0.5-0.8v-0.7h0.3v0.6l0.5 0.8v0.1z"/><path class="a" d="m47.4 150h-1.4-0.6v-0.4l0.6 0.1h1.1v-0.7h0.3z"/><path class="a" d="m47.1 161.8h-0.3v-11.2l0.3-0.8 0.3 0.1-0.3 0.8z"/><g style="opacity:.4"><path class="a" d="m46.5 149.1l-0.4 0.7h0.5l-0.6 0.9-0.6-0.9v-0.7z"/></g><path fill-rule="evenodd" class="a" d="m47.4 163h-1.9v-1.4h1.9zm-1.5-0.4h1.1v-0.6h-1.1z"/><path class="a" d="m51 161.8h-0.4l0.1-11.6-0.5-0.8v-0.5h0.3v0.4l0.5 0.8z"/><path class="a" d="m52.3 149.6h-1.4l-0.6-0.1 0.1-0.3h0.5 1.1v-0.5h0.3z"/><path class="a" d="m52 161.8h-0.3v-11.6l0.3-0.9 0.3 0.2-0.2 0.8z"/><g style="opacity:.4"><path class="a" d="m51.4 149l-0.4 0.4h0.5l-0.6 0.9-0.6-0.9v-0.4z"/></g><path fill-rule="evenodd" class="a" d="m52.3 163h-1.9v-1.3h1.9zm-1.5-0.4h1.1v-0.6h-1.1z"/><path class="a" d="m56.5 161.9h-0.4v-11.7l-0.4-0.8v-0.3h0.3v0.2l0.5 0.8v0.1z"/><path class="a" d="m57.8 149.6h-1.4-0.6v-0.4l0.6 0.1h1.1v-0.4h0.3z"/><path class="a" d="m57.5 161.9h-0.4l0.1-11.7 0.3-0.8 0.3 0.1-0.3 0.8z"/><g style="opacity:.4"><path class="a" d="m56.9 149.1l-0.5 0.3h0.6l-0.7 0.9-0.5-0.9v-0.3z"/></g><path fill-rule="evenodd" class="a" d="m57.8 163.1h-1.9v-1.3h1.9zm-1.5-0.4h1.1v-0.7h-1.1z"/><path class="a" d="m62.1 162h-0.3v-11.5l-0.5-0.8v-0.8h0.4v0.7l0.5 0.8z"/><path class="a" d="m63.5 149.9h-1.5l-0.5-0.1v-0.3h0.6 1v-0.4h0.4z"/><path class="a" d="m63.2 162h-0.4v-11.5l0.3-0.8 0.4 0.1-0.3 0.8z"/><g style="opacity:.4"><path class="a" d="m62.5 149.2l-0.4 0.5h0.6l-0.7 0.9-0.5-0.9-0.1-0.8z"/></g><path fill-rule="evenodd" class="a" d="m63.4 163.2h-1.9v-1.4h1.9zm-1.5-0.3h1.2v-0.7h-1.2z"/><path class="a" d="m67.9 162.1h-0.3v-11.6l-0.5-0.8v-0.6h0.3v0.5l0.5 0.8v0.1z"/><path class="a" d="m69.2 149.9h-1.4-0.6l0.1-0.4 0.5 0.1h1.1v-0.6h0.4z"/><path class="a" d="m68.9 162.1h-0.3v-11.6l0.3-0.8 0.3 0.1-0.2 0.8z"/><g style="opacity:.4"><path class="a" d="m68.3 149.2l-0.4 0.5 0.5 0.1-0.6 0.8-0.6-0.9 0.1-0.5z"/></g><path fill-rule="evenodd" class="a" d="m69.2 163.3h-1.9v-1.4h1.9zm-1.5-0.3h1.1v-0.7h-1.1z"/><path class="a" d="m73.8 162.2h-0.4l0.1-11.9-0.6-0.9v-0.5h0.4v0.4l0.5 0.9z"/><path class="a" d="m75.2 149.6h-1.5l-0.6-0.1v-0.3l0.6 0.1h1.2v-0.4h0.3z"/><path class="a" d="m74.9 162.2h-0.4l0.1-11.9 0.3-0.9 0.3 0.1-0.3 0.9z"/><g style="opacity:.4"><path class="a" d="m74.3 149l-0.5 0.4h0.6l-0.7 1-0.6-1v-0.4z"/></g><path fill-rule="evenodd" class="a" d="m75.2 163.5h-2v-1.5h2zm-1.6-0.3h1.2v-0.8h-1.2z"/><path class="a" d="m79.6 163.4l0.2-14.4h0.4l-0.3 14.4z"/><path class="a" d="m32 150.8h3.8v0.3h-3.8z"/><path class="a" d="m36.9 150.8h3.8v0.3h-3.8z"/><path class="a" d="m41.9 150.8h4v0.3h-4z"/><path class="a" d="m47 150.8h3.8v0.3h-3.8z"/><path class="a" d="m51.9 150.8h4.4v0.3h-4.4z"/><path class="a" d="m57.4 150.8h4.6v0.3h-4.6z"/><path class="a" d="m63 150.8h4.8v0.3h-4.8z"/><path class="a" d="m68.8 150.8h4.8v0.3h-4.8z"/><path class="a" d="m74.8 150.8h5.1v0.3h-5.1z"/><g style="opacity:.6"><path class="a" d="m31.9 161.6v-5.4c0.2-1.6 0.5-3.6 2-4.3 1 0.7 1.9 2.2 1.9 4v5.8l-0.3-0.1v1.2l-3.2-0.1v-1.1c0 0-0.4 0-0.4 0z"/></g><path class="a" d="m32.2 155.6h-0.4q0.2-2.6 2.1-3.9l0.1-0.1 0.1 0.1q1.5 1.3 1.9 3.8l-0.4 0.1q-0.4-2.2-1.6-3.4c-1.1 0.8-1.7 1.9-1.8 3.4z"/><path fill-rule="evenodd" class="a" d="m33.8 157.9c-0.6 0-1-0.5-1-1.2 0-0.6 0.4-1.1 1-1.1 0.5 0 0.9 0.5 0.9 1.1 0 0.7-0.4 1.2-0.9 1.2zm0-1.9c-0.3 0-0.5 0.3-0.5 0.7 0 0.4 0.2 0.7 0.5 0.7 0.2 0 0.5-0.3 0.5-0.7 0-0.4-0.2-0.7-0.5-0.7z"/><path class="a" d="m34 155.9l1.2-2 0.4 0.2-1.2 2z"/><path class="a" d="m32.1 154.3l0.4-0.2 1 1.7-0.4 0.3z"/><path class="a" d="m34.5 157.1v-0.4h1.3v0.5z"/><path class="a" d="m32 156.7h1v0.4h-1z"/><path class="a" d="m32.9 162.7v-5.4h0.5l-0.1 5.4z"/><path class="a" d="m34.1 157.4h0.4v5.4h-0.4z"/><g style="opacity:.6"><path class="a" d="m36.7 161.7v-5.7c0.2-1.5 0.6-3.6 2.2-4.3 1 0.7 2 2.3 1.9 4v6h-0.3v1.1h-3.4v-1.2z"/></g><path class="a" d="m37.1 155.6h-0.5q0.2-2.6 2.2-4l0.2-0.1 0.1 0.1q1.5 1.4 1.9 3.9l-0.4 0.1q-0.4-2.3-1.7-3.5c-1.1 0.8-1.7 2-1.8 3.5q0 0 0 0z"/><path fill-rule="evenodd" class="a" d="m38.7 157.9c-0.6 0-1-0.5-1-1.1 0-0.7 0.4-1.2 1-1.2 0.6 0 1 0.5 1 1.2 0 0.6-0.4 1.1-1 1.1zm0-1.9c-0.3 0-0.6 0.4-0.6 0.8 0 0.4 0.3 0.7 0.6 0.7 0.3 0 0.6-0.3 0.6-0.7 0-0.4-0.3-0.8-0.6-0.8z"/><path class="a" d="m39 155.9l1.2-2.1 0.4 0.2-1.3 2.1z"/><path class="a" d="m36.9 154.3l0.4-0.3 1.1 1.9-0.3 0.2z"/><path class="a" d="m39.5 157.2v-0.5l1.3 0.1v0.4z"/><path class="a" d="m36.8 156.7h1.1v0.4h-1.1z"/><path class="a" d="m38.2 162.8h-0.4v-5.5h0.5z"/><path class="a" d="m39 157.4h0.5v5.4h-0.5z"/><g style="opacity:.6"><path class="a" d="m41.7 161.7v-5.5c0.2-1.5 0.6-3.5 2.2-4.2 1.1 0.6 2 2.2 2 3.9v5.9l-0.2-0.1v1.2l-3.5-0.1-0.1-1.1c0 0-0.4 0-0.4 0z"/></g><path class="a" d="m42.1 155.8l-0.4-0.1q0.2-2.5 2.2-3.9l0.1-0.1 0.2 0.1q1.5 1.3 1.9 3.8l-0.4 0.1q-0.4-2.2-1.7-3.4-1.7 1.2-1.9 3.5z"/><path fill-rule="evenodd" class="a" d="m43.8 158c-0.6 0-1-0.5-1-1.1 0-0.7 0.4-1.2 1-1.2 0.5 0 1 0.5 1 1.2 0 0.6-0.5 1.1-1 1.1zm0-1.9c-0.3 0-0.6 0.4-0.6 0.8 0 0.4 0.3 0.7 0.6 0.7 0.3 0 0.5-0.3 0.5-0.7 0-0.4-0.2-0.8-0.5-0.8z"/><path class="a" d="m44 156l1.3-2 0.4 0.2-1.3 2.1z"/><path class="a" d="m42 154.4l0.4-0.2 1.1 1.8-0.4 0.2z"/><path class="a" d="m45.9 157.3l-1.4-0.1 0.1-0.4h1.3z"/><path class="a" d="m41.9 156.8h1.1v0.4h-1.1z"/><path class="a" d="m42.8 162.8l0.1-5.4h0.4v5.4z"/><path class="a" d="m44.1 157.5h0.4v5.4h-0.4z"/><g style="opacity:.6"><path class="a" d="m46.8 161.7v-5.5c0.3-1.5 0.6-3.6 2.1-4.2 1 0.6 2 2.2 1.9 3.9v6h-0.3v1h-3.2l-0.1-1.1c0 0-0.4-0.1-0.4-0.1z"/></g><path class="a" d="m47.2 155.7h-0.5q0.2-2.6 2.2-4l0.1-0.1 0.1 0.2q1.5 1.3 1.9 3.7l-0.4 0.1q-0.4-2.2-1.6-3.4c-1.1 0.8-1.7 2-1.8 3.5z"/><path fill-rule="evenodd" class="a" d="m48.8 157.9c-0.6 0-1-0.5-1-1.1 0-0.7 0.4-1.2 1-1.2 0.5 0 0.9 0.5 0.9 1.2 0 0.6-0.4 1.1-0.9 1.1zm0-1.8c-0.3 0-0.6 0.3-0.6 0.7 0 0.4 0.3 0.7 0.6 0.7 0.3 0 0.5-0.3 0.5-0.7 0-0.4-0.2-0.7-0.5-0.7z"/><path class="a" d="m49 156l1.2-2.1 0.4 0.2-1.2 2.1z"/><path class="a" d="m47.1 154.4l0.3-0.3 1.1 1.8-0.4 0.2z"/><path class="a" d="m49.5 157.1v-0.4h1.3v0.5z"/><path class="a" d="m46.9 156.7h1.1v0.4h-1.1z"/><path class="a" d="m47.9 162.9v-5.6h0.5l-0.1 5.6z"/><path class="a" d="m49.1 162.9v-5.4h0.4v5.4z"/><path fill-rule="evenodd" class="a" d="m34 152c-0.3 0-0.5-0.2-0.5-0.5 0-0.3 0.2-0.6 0.5-0.6 0.3 0 0.5 0.3 0.5 0.6 0 0.3-0.2 0.5-0.5 0.5zm0-0.7c-0.1 0-0.2 0.1-0.2 0.2 0 0.1 0.1 0.1 0.2 0.1 0.1 0 0.2 0 0.2-0.1 0-0.1-0.1-0.2-0.2-0.2z"/><path fill-rule="evenodd" class="a" d="m38.9 151.9c-0.3 0-0.5-0.2-0.5-0.5 0-0.3 0.2-0.5 0.5-0.5 0.3 0 0.5 0.2 0.5 0.5 0 0.3-0.2 0.5-0.5 0.5zm0-0.6c-0.1 0-0.1 0-0.1 0.1 0 0.1 0 0.2 0.1 0.2 0.1 0 0.2-0.1 0.2-0.2 0-0.1-0.1-0.1-0.2-0.1z"/><path fill-rule="evenodd" class="a" d="m44 152c-0.3 0-0.5-0.2-0.5-0.5 0-0.3 0.2-0.6 0.5-0.6 0.3 0 0.5 0.3 0.5 0.6 0 0.3-0.2 0.5-0.5 0.5zm0-0.7c-0.1 0-0.2 0.1-0.2 0.2 0 0.1 0.1 0.1 0.2 0.1 0.1 0 0.2 0 0.2-0.1 0-0.1-0.1-0.2-0.2-0.2z"/><path fill-rule="evenodd" class="a" d="m49 151.9c-0.3 0-0.6-0.2-0.6-0.5 0-0.3 0.3-0.5 0.6-0.5 0.3 0 0.5 0.2 0.5 0.5 0 0.3-0.2 0.5-0.5 0.5zm0-0.6c-0.1 0-0.2 0-0.2 0.1 0 0.1 0.1 0.2 0.2 0.2 0.1 0 0.1-0.1 0.1-0.2 0-0.1 0-0.1-0.1-0.1z"/><path fill-rule="evenodd" class="a" d="m54.2 151.9c-0.3 0-0.5-0.2-0.5-0.5 0-0.3 0.2-0.5 0.5-0.5 0.3 0 0.6 0.2 0.6 0.5 0 0.3-0.3 0.5-0.6 0.5zm0-0.6c-0.1 0-0.1 0-0.1 0.1 0 0.1 0 0.2 0.1 0.2 0.1 0 0.2-0.1 0.2-0.2 0-0.1-0.1-0.1-0.2-0.1z"/><path fill-rule="evenodd" class="a" d="m59.7 151.9c-0.3 0-0.5-0.2-0.5-0.5 0-0.3 0.2-0.5 0.5-0.5 0.3 0 0.5 0.2 0.5 0.5 0 0.3-0.2 0.5-0.5 0.5zm0-0.6c-0.1 0-0.2 0-0.2 0.1 0 0.1 0.1 0.2 0.2 0.2 0.1 0 0.2-0.1 0.2-0.2 0-0.1-0.1-0.1-0.2-0.1z"/><path fill-rule="evenodd" class="a" d="m65.4 151.9c-0.2 0-0.5-0.2-0.5-0.5 0-0.3 0.3-0.5 0.5-0.5 0.3 0 0.6 0.2 0.6 0.5 0 0.3-0.3 0.5-0.6 0.5zm0-0.6c0 0-0.1 0-0.1 0.1 0 0.1 0.1 0.2 0.1 0.2 0.1 0 0.2-0.1 0.2-0.2 0-0.1-0.1-0.1-0.2-0.1z"/><path fill-rule="evenodd" class="a" d="m71.3 151.9c-0.3 0-0.5-0.2-0.5-0.5 0-0.3 0.2-0.5 0.5-0.5 0.3 0 0.5 0.2 0.5 0.5 0 0.3-0.2 0.5-0.5 0.5zm0-0.6c-0.1 0-0.2 0-0.2 0.1 0 0.1 0.1 0.2 0.2 0.2 0.1 0 0.2-0.1 0.2-0.2 0-0.1-0.1-0.1-0.2-0.1z"/><path fill-rule="evenodd" class="a" d="m77.4 151.9c-0.3 0-0.5-0.2-0.5-0.5 0-0.3 0.2-0.5 0.5-0.5 0.3 0 0.5 0.2 0.5 0.5 0 0.3-0.2 0.5-0.5 0.5zm0-0.6c-0.1 0-0.2 0-0.2 0.1 0 0.1 0.1 0.2 0.2 0.2 0.1 0 0.2-0.1 0.2-0.2 0-0.1-0.1-0.1-0.2-0.1z"/><g style="opacity:.6"><path class="a" d="m51.8 161.8l-0.1-5.7c0.3-1.5 0.7-3.4 2.4-4.1 1.2 0.6 2.2 2.1 2.2 3.8v6.1h-0.2l-0.1 1.1-3.8-0.1-0.1-1-0.3-0.1z"/></g><path class="a" d="m52.1 155.6h-0.4q0.2-2.5 2.4-3.8l0.1-0.1 0.2 0.1q1.6 1.2 2.1 3.7l-0.4 0.1q-0.4-2.2-1.9-3.4c-1.3 0.8-1.9 1.9-2.1 3.4q0 0 0 0z"/><path fill-rule="evenodd" class="a" d="m54 157.8c-0.6 0-1.1-0.5-1.1-1.1 0-0.6 0.5-1.1 1.1-1.1 0.6 0 1 0.5 1 1.1 0 0.6-0.4 1.1-1 1.1zm0-1.8c-0.4 0-0.7 0.3-0.7 0.7 0 0.4 0.3 0.7 0.7 0.7 0.3 0 0.6-0.3 0.6-0.7 0-0.4-0.3-0.7-0.6-0.7z"/><path class="a" d="m54.3 155.9l1.3-2 0.4 0.2-1.4 2z"/><path class="a" d="m52 154.3l0.4-0.2 1.2 1.7-0.3 0.3z"/><path class="a" d="m54.8 157.1v-0.5l1.5 0.1v0.4z"/><path class="a" d="m51.9 156.6h1.2v0.5h-1.2z"/><path class="a" d="m53 162.9v-5.7h0.5l-0.1 5.7z"/><path class="a" d="m54.3 163v-5.6h0.5v5.6z"/><g style="opacity:.6"><path class="a" d="m63 162l-0.1-5.8c0.3-1.6 0.6-3.6 2.5-4.2 1.3 0.6 2.4 2.2 2.3 4.1v5.9h-0.3v1.2l-4.2-0.1v-1.1h-0.2q0 0 0 0z"/></g><path class="a" d="m63.2 155.9l-0.4-0.1q0.2-2.7 2.6-4.1l0.1-0.1 0.1 0.1q1.8 1.4 2.4 4l-0.5 0.1q-0.4-2.4-2-3.6c-1.4 0.8-2.1 2-2.3 3.6q0 0 0 0.1z"/><path fill-rule="evenodd" class="a" d="m65.2 158.2c-0.6 0-1.1-0.5-1.1-1.2 0-0.7 0.5-1.2 1.1-1.2 0.6 0 1.2 0.5 1.2 1.2 0 0.7-0.6 1.2-1.2 1.2zm0-2c-0.4 0-0.7 0.4-0.7 0.8 0 0.4 0.3 0.8 0.7 0.8 0.4 0 0.7-0.4 0.7-0.8 0-0.4-0.3-0.8-0.7-0.8z"/><path class="a" d="m65.6 156.1l1.5-2.1 0.3 0.2-1.5 2.2z"/><path class="a" d="m63.2 154.4l0.3-0.2 1.4 1.9-0.4 0.2z"/><path class="a" d="m66.1 157.4v-0.5l1.6 0.1v0.4z"/><path class="a" d="m63 156.9h1.3v0.5h-1.3z"/><path class="a" d="m64.2 163.2v-5.6h0.5l-0.1 5.6z"/><path class="a" d="m65.6 163.2l0.1-5.5h0.4v5.5z"/><g style="opacity:.6"><path class="a" d="m68.8 162v-5.7c0.2-1.6 0.5-3.6 2.4-4.3 1.3 0.7 2.4 2.4 2.4 4.2v6h-0.2v1.2l-4.3-0.2v-1.1z"/></g><path class="a" d="m69 156h-0.4q0.2-2.8 2.6-4.2l0.1-0.1 0.2 0.1q1.8 1.4 2.3 4l-0.4 0.1q-0.5-2.4-2.1-3.7c-1.4 0.9-2.1 2.1-2.3 3.8z"/><path fill-rule="evenodd" class="a" d="m71 158.4c-0.6 0-1.1-0.6-1.1-1.2 0-0.7 0.5-1.3 1.1-1.3 0.7 0 1.2 0.6 1.2 1.3 0 0.6-0.5 1.2-1.2 1.2zm0-2c-0.4 0-0.7 0.3-0.7 0.8 0 0.4 0.3 0.7 0.7 0.7 0.4 0 0.8-0.3 0.8-0.7 0-0.5-0.4-0.8-0.8-0.8z"/><path class="a" d="m71.4 156.3l1.5-2.2 0.4 0.2-1.5 2.2z"/><path class="a" d="m69 154.6l0.3-0.3 1.4 1.9-0.4 0.3z"/><path class="a" d="m72 157.5v-0.4h1.6v0.5z"/><path class="a" d="m68.8 157.1h1.3v0.4h-1.3z"/><path class="a" d="m70 163.3v-5.6l0.5 0.1-0.1 5.5z"/><path class="a" d="m71.9 163.3h-0.4v-5.4h0.4z"/><g style="opacity:.6"><path class="a" d="m74.8 162.1l-0.1-5.2c0.3-1.8 0.6-4.1 2.6-4.8 1.4 0.7 2.6 2.5 2.6 4.4v6.7l-0.1 0.2h-4.7l-0.1-1.2c0 0-0.2-0.1-0.2-0.1z"/></g><path class="a" d="m74.9 156.3h-0.4q0.3-3 2.8-4.5l0.1-0.1 0.2 0.1q1.9 1.5 2.5 4.3l-0.4 0.1q-0.6-2.6-2.3-3.9c-1.5 0.9-2.3 2.2-2.5 4q0 0 0 0z"/><path fill-rule="evenodd" class="a" d="m77.1 158.8c-0.7 0-1.2-0.5-1.2-1.3 0-0.7 0.5-1.3 1.2-1.3 0.7 0 1.3 0.6 1.3 1.3 0 0.8-0.6 1.3-1.3 1.3zm0-2.1c-0.4 0-0.8 0.4-0.8 0.8 0 0.5 0.4 0.9 0.8 0.9 0.5 0 0.8-0.4 0.8-0.9 0-0.4-0.3-0.8-0.8-0.8z"/><path class="a" d="m77.5 156.6l1.6-2.3 0.4 0.2-1.6 2.3z"/><path class="a" d="m74.9 154.7l0.4-0.2 1.4 2-0.3 0.3z"/><path class="a" d="m78.1 157.9v-0.4l1.8 0.1v0.4z"/><path class="a" d="m74.7 157.5h1.4v0.4h-1.4z"/><path class="a" d="m76.1 163.4v-5.2h0.4v5.2z"/><path class="a" d="m77.6 163.4v-5.1h0.5l-0.1 5.1z"/><g style="opacity:.6"><path class="a" d="m57.3 161.8l-0.1-5.6c0.2-1.5 0.6-3.6 2.5-4.3 1.2 0.6 2.3 2.2 2.2 4v6.1h-0.2v1.1l-4.1-0.1v-1.1c0 0-0.3-0.1-0.3-0.1z"/></g><path class="a" d="m57.6 155.7h-0.5q0.2-2.7 2.5-4l0.2-0.1 0.1 0.1q1.7 1.3 2.2 3.8l-0.4 0.1q-0.5-2.3-2-3.5c-1.3 0.9-2 2-2.1 3.6z"/><path fill-rule="evenodd" class="a" d="m59.5 158c-0.6 0-1.1-0.6-1.1-1.2 0-0.6 0.5-1.2 1.1-1.2 0.6 0 1.1 0.6 1.1 1.2 0 0.6-0.5 1.2-1.1 1.2zm0-1.9c-0.4 0-0.7 0.3-0.7 0.7 0 0.4 0.3 0.7 0.7 0.7 0.3 0 0.7-0.3 0.7-0.7 0-0.4-0.4-0.7-0.7-0.7z"/><path class="a" d="m59.8 155.9l1.4-2 0.4 0.2-1.4 2.1z"/><path class="a" d="m57.5 154.3l0.4-0.2 1.2 1.8-0.3 0.3z"/><path class="a" d="m60.4 157.2v-0.5l1.5 0.1v0.4z"/><path class="a" d="m57.3 156.7h1.3v0.5h-1.3z"/><path class="a" d="m58.4 163l0.1-5.6h0.5l-0.1 5.6z"/><path class="a" d="m59.9 157.5h0.4v5.6h-0.4z"/><g style="opacity:.9"><path class="a" d="m123.2 145.4v14.1l-0.5 0.1 0.1 0.8h-9.6v-12c0-3 2.4-5.5 5.4-5.5 2 0 3.7 1 4.6 2.5z"/></g><g style="opacity:.6"><path class="a" d="m108.1 138.3h0.8v9.3h-0.8z"/><g clip-path="url(#cp20)"><path class="a" d="m108.1 138.3h0.8v9.3h-0.8z"/><g clip-path="url(#cp21)"><path class="a" d="m108.9 147.6c0 0-0.2-0.5-0.8-0.9v-8.4l0.8 1.2z"/></g></g></g><path class="a" d="m112.9 160.6h-0.4v-22.1h10.1v0.3h-9.7z"/><g style="opacity:.9"><path class="a" d="m137.3 143.2v16.2l-0.5 0.1v1.2h-3.2v-12.5c0-2.4 1.6-4.4 3.7-5z"/></g><g style="opacity:.9"><path class="a" d="m144.2 148.2v12.5h-4.6v-1.2l-0.5-0.1 0.1-16.4c2.7 0.1 5 2.4 5 5.2z"/></g><path class="a" d="m145.5 160.7h-0.4v-21.9h-5.6v-0.3h6z"/><path class="a" d="m132.5 160.6h-0.4v-22.1h4.7v0.3h-4.3z"/><g style="opacity:.6"><path class="a" d="m139.1 149.7l0.1-9.9 0.5-1.9 0.7-0.1c-0.4-4.8 1.1-7.6 4.4-8.9 3.8 1.6 4.6 3.8 4.7 8.9h0.9v0.5l0.8 1.6v11.1c-3.7-5.3-7.3-0.8-7.3-0.8l-4.8-0.5z"/></g><g style="opacity:.7"><path class="a" d="m158.5 143.2c3 0 5.3 2.3 5.3 5.2v12.1l-10.3-0.1-0.1-0.9-0.4-0.1 0.3-11c0-2.9 2.3-5.2 5.2-5.2z"/></g><g style="opacity:.6"><path class="a" d="m153.5 159.4h-0.2l-0.3-0.1 0.1-19.4 0.5-2h1c-0.3-4.3 0.9-6.8 4-8.1 3.1 1.1 4.7 4.3 4.3 8.2h1v0.8l0.8 1.4v12.6c-0.3-3.1-2.3-4.3-3.9-4.8-1.5-0.5-3.6 0.1-4.5 1.5-2.4 3.6-2.8 9.9-2.8 9.9z"/></g><g style="opacity:.6"><path class="a" d="m167.1 160.7l-0.1-1.3h-0.5l0.1-19.1 0.5-1.5v-0.7l0.9-0.1c-0.3-3.8 0.2-6.3 3.8-8.1 3.8 1.8 4.8 4.8 4.4 8.3h0.4l0.1 0.6 0.9 1.4 0.6 19.1h-0.3v1.3c0 0-10.8 0.1-10.8 0.1z"/></g><g style="opacity:.6"><path class="a" d="m180.6 160.6v-1.3h-0.5l-0.6-19 0.4-1.4 0.1-0.5h0.5l0.7 22.3z"/></g><path class="a" d="m104.3 120.9v-0.4l80.1 2v0.3z"/><path class="a" d="m104.7 121.6v-0.4l79.3 1.8-0.1 0.3z"/><path class="a" d="m184.2 134.7v-0.3l2.8-0.1-0.3-6.9h-2.8v-0.4l3.2 0.1 0.2 7.5z"/><path class="a" d="m184 128.3c0.2-0.1 0.2-0.1 0.4-0.2 1.3 0.6 2 1.8 2 3.6v1.9l-2.3-0.1"/><path class="a" d="m184.3 141.1c0.2-0.1 0.3-0.2 0.5-0.3 1.4 0.6 2 1.8 2.1 3.6v1.9l-2.4-0.1"/><g style="opacity:.4"><path class="a" d="m184.5 127.5l1.9 0.1-0.1 3.2-0.1-3-1.7-0.1z"/></g><g style="opacity:.4"><path class="a" d="m185 140h1.9l-0.1 3.3-0.1-3.1h-1.7z"/></g><path class="a" d="m187.9 147.6h-3.4v-0.4h3l-0.2-7.3h-3v-0.4h3.3z"/><path class="a" d="m184.7 151.2c0 0 2.5 1.1 3 4.2l0.1 7.6h-2.8z"/><path class="a" d="m196.6 135h-1.7v-0.4h1.3v-4.6h-2.7v3.6h-0.3v-4h3.4z"/><path class="a" d="m205.2 135.1h-1.6v-0.3h1.2v-4.7h-2.7v3.8h-0.3v-4.1h3.4z"/><path class="a" d="m213.3 135.3h-1.1v-0.4h0.7v-4.6h-2.6v3.4h-0.4v-3.8h3.4z"/><path class="a" d="m221.6 135.4h-1v-0.3h0.7v-4.7h-2.7v3.5h-0.3v-3.8h3.3z"/><path class="a" d="m230 135.6h-1v-0.3h0.6v-4.6h-2.6v3.4h-0.4v-3.8h3.4z"/><path class="a" d="m198 161.4l-0.1-10.4-0.5-0.8v-0.4h0.3v0.3l0.5 0.8 0.1 10.5z"/><path class="a" d="m199.5 150.4h-1.4-0.6l0.1-0.4 0.5 0.1h1.1v-0.5h0.3z"/><path class="a" d="m199.1 161.3l-0.2-10.2 0.3-0.9 0.3 0.1-0.2 0.8 0.1 10.2z"/><g style="opacity:.4"><path class="a" d="m197.5 149.8h1.2v1.3h-1.2z"/><g clip-path="url(#cp22)"><path class="a" d="m197.5 149.8h1.2v1.3h-1.2z"/><g clip-path="url(#cp23)"><path class="a" d="m198.6 149.8l-0.4 0.4h0.5l-0.6 0.9-0.6-0.9v-0.4z"/></g></g></g><path fill-rule="evenodd" class="a" d="m200.2 162.7h-3.1v-0.8l0.6-0.3 0.2-0.4h1.6l0.2 0.4 0.5 0.3zm-0.3-0.4v-0.3l-0.4-0.2-0.2-0.3h-1.2l-0.2 0.3-0.4 0.2v0.3z"/><path class="a" d="m206.7 161.6l-0.2-10.5-0.5-0.8v-0.4h0.4v0.3l0.5 0.8v0.1l0.1 10.5z"/><path class="a" d="m208.2 150.5h-1.4l-0.6-0.1v-0.3h0.6 1v-0.2h0.4z"/><path class="a" d="m207.8 161.7l-0.2-10.6 0.2-0.8 0.4 0.1-0.3 0.8 0.3 10.4z"/><g style="opacity:.4"><path class="a" d="m206.2 149.9h1.2v1.3h-1.2z"/><g clip-path="url(#cp24)"><path class="a" d="m206.2 149.9h1.2v1.3h-1.2z"/><g clip-path="url(#cp25)"><path class="a" d="m207.3 149.9l-0.5 0.4h0.6l-0.7 0.9-0.5-0.9v-0.4z"/></g></g></g><path fill-rule="evenodd" class="a" d="m208.8 162.7h-2.7v-0.7l0.4-0.2 0.2-0.4h1.3l0.3 0.4 0.5 0.1zm-2.4-0.3h2.1v-0.1l-0.4-0.1-0.3-0.4h-0.9l-0.2 0.4-0.3 0.1z"/><path class="a" d="m215.3 161.3l-0.2-9.7-0.5-0.8v-0.6h0.4v0.5l0.5 0.8 0.1 9.8z"/><path class="a" d="m216.8 150.9h-1.4-0.6v-0.4l0.6 0.1h1v-0.5h0.4z"/><path class="a" d="m216.4 161.3l-0.2-9.7 0.2-0.9 0.4 0.1-0.3 0.8 0.3 9.7z"/><g style="opacity:.4"><path class="a" d="m214.8 150.1h1.2v1.5h-1.2z"/><g clip-path="url(#cp26)"><path class="a" d="m214.8 150.1h1.2v1.5h-1.2z"/><g clip-path="url(#cp27)"><path class="a" d="m215.9 150.1l-0.5 0.6h0.6l-0.7 0.9-0.5-0.9v-0.6z"/></g></g></g><path class="a" d="m223.9 161.4l-0.2-9.9-0.5-0.8v-0.8h0.4v0.7l0.5 0.8 0.2 10z"/><path class="a" d="m225.4 150.9h-1.4l-0.6-0.1v-0.4l0.6 0.1h1l0.1-0.5h0.3z"/><path class="a" d="m224.9 161.5l-0.1-10 0.3-0.9 0.3 0.1-0.3 0.8 0.2 10z"/><g style="opacity:.4"><path class="a" d="m223.4 150.2h1.2v1.3h-1.2z"/><g clip-path="url(#cp28)"><path class="a" d="m223.4 150.2h1.2v1.3h-1.2z"/><g clip-path="url(#cp29)"><path class="a" d="m224.5 150.2l-0.5 0.5h0.6l-0.7 0.8-0.5-0.9v-0.4z"/></g></g></g><path fill-rule="evenodd" class="a" d="m191 162.8l-0.3-10.9h6.4l0.3 10.8c0 0-6.4 0.1-6.4 0.1zm0-10.6l0.4 10.3 5.6-0.1-0.3-10.2z"/><path fill-rule="evenodd" class="a" d="m194.1 158.5c-0.7 0-1.3-0.6-1.3-1.3 0-0.7 0.6-1.2 1.3-1.2 0.6 0 1.2 0.5 1.2 1.2 0 0.7-0.6 1.3-1.2 1.3zm0-2.2c-0.5 0-0.9 0.4-0.9 0.9 0 0.5 0.4 0.9 0.9 0.9 0.4 0 0.8-0.4 0.8-0.9 0-0.5-0.4-0.9-0.8-0.9z"/><path class="a" d="m191 157.2h2v0.3h-2z"/><path class="a" d="m197.3 157.4h-2.2v-0.4l1.7 0.1c-0.6-1.9-1.6-3.1-3-3.9q-2.4 1.6-2.6 3.9h-0.4q0.3-2.6 2.9-4.2l0.1-0.1 0.1 0.1c1.6 0.8 2.7 2.2 3.3 4.3 0 0 0.1 0.2 0.1 0.2z"/><path class="a" d="m191.8 154.9l0.2-0.2 1.5 1.6-0.2 0.2z"/><path class="a" d="m194.5 156.2l1.3-1.5 0.2 0.3-1.3 1.4z"/><path class="a" d="m192.9 157.8h0.4l0.1 4.8h-0.4z"/><path class="a" d="m194.8 157.7h0.4l0.2 4.8h-0.3z"/><path fill-rule="evenodd" class="a" d="m193.8 152.9c-0.2 0-0.4-0.2-0.4-0.5 0-0.2 0.2-0.4 0.4-0.4 0.3 0 0.5 0.2 0.5 0.4 0 0.3-0.2 0.5-0.5 0.5zm0-0.6q-0.1 0-0.1 0.1c0 0.1 0.2 0.1 0.2 0q0-0.1-0.1-0.1z"/><path class="a" d="m196.8 155.9c-0.5-1.2-1.3-2.2-2.5-3l-0.2-0.1 0.1-0.1q0.1-0.1 0.1-0.3 0-0.2-0.1-0.3l0.2-0.2q0.2 0.2 0.2 0.5 0 0.2 0 0.3c1.2 0.8 2 1.8 2.6 3.1l-0.4 0.1q0 0 0 0z"/><path class="a" d="m191.1 155.4l-0.3-0.1c0.4-0.9 1.1-1.8 2.2-2.6q0-0.1 0-0.3 0-0.2 0.1-0.4l0.3 0.2q-0.1 0.1-0.1 0.2 0 0.2 0.1 0.3l0.1 0.1-0.1 0.1c-1.1 0.8-1.9 1.7-2.3 2.5z"/><g style="opacity:.6"><path class="a" d="m190.9 152.1h2.3v0.6q-1.5 1.3-2.2 2.5z"/></g><g style="opacity:.6"><path class="a" d="m194.5 152.1h2.3l0.1 3.4q-1-1.7-2.5-2.7l0.1-0.7q0 0 0 0z"/></g><g style="opacity:.6"><path class="a" d="m191.1 162.6l-0.1-6.1c0.5-1.6 2.2-3.3 2.9-3.4 1.8 0.9 2.6 2.3 3.1 4l0.2 5.4-6.1 0.1q0 0 0 0z"/></g><path fill-rule="evenodd" class="a" d="m200 162.7l-0.3-10.9h6.4l0.3 10.8zm0-10.6l0.3 10.3 5.7-0.1-0.3-10.2c0 0-5.7 0-5.7 0z"/><path fill-rule="evenodd" class="a" d="m203.1 158.4c-0.7 0-1.3-0.6-1.3-1.3 0-0.6 0.6-1.2 1.3-1.2 0.6 0 1.2 0.6 1.2 1.2 0 0.7-0.6 1.3-1.2 1.3zm0-2.1c-0.5 0-0.9 0.4-0.9 0.8 0 0.5 0.4 0.9 0.9 0.9 0.4 0 0.8-0.4 0.8-0.9 0-0.4-0.4-0.8-0.8-0.8z"/><path class="a" d="m200 157.1h2v0.3h-2z"/><path class="a" d="m206.3 157.3h-2.2v-0.3h1.7c-0.6-1.9-1.6-3.1-3-3.9q-2.4 1.6-2.6 3.9h-0.4q0.3-2.6 2.9-4.2l0.1-0.1 0.1 0.1c1.6 0.8 2.7 2.2 3.3 4.3 0 0 0.1 0.2 0.1 0.2z"/><path class="a" d="m200.8 154.8l0.2-0.2 1.5 1.6-0.2 0.2z"/><path class="a" d="m203.5 156.1l1.3-1.5 0.2 0.3-1.3 1.4z"/><path class="a" d="m201.9 157.7h0.4l0.1 4.8h-0.4z"/><path class="a" d="m203.8 157.6h0.4l0.2 4.8h-0.3z"/><path fill-rule="evenodd" class="a" d="m202.8 152.8c-0.2 0-0.4-0.2-0.4-0.5 0-0.2 0.2-0.4 0.4-0.4 0.3 0 0.5 0.2 0.5 0.4 0 0.3-0.2 0.5-0.5 0.5zm0-0.5q-0.1 0-0.1 0c0 0.1 0.2 0.1 0.2 0q0 0-0.1 0z"/><path class="a" d="m205.8 155.9c-0.5-1.3-1.3-2.3-2.5-3.1l-0.2-0.1 0.1-0.1q0.1-0.1 0.1-0.3 0-0.1-0.1-0.3l0.2-0.2q0.2 0.2 0.2 0.5 0 0.2 0 0.3c1.2 0.8 2 1.8 2.6 3.1l-0.4 0.2q0 0 0 0z"/><path class="a" d="m200.1 155.4l-0.3-0.2c0.4-0.9 1.1-1.8 2.2-2.6q0-0.1 0-0.3 0-0.2 0.1-0.4l0.3 0.2q-0.1 0.1-0.1 0.2 0 0.2 0.1 0.3l0.1 0.1-0.1 0.1c-1.1 0.8-1.9 1.7-2.3 2.6z"/><g style="opacity:.6"><path class="a" d="m199.9 152h2.3v0.6q-1.5 1.3-2.2 2.5z"/></g><g style="opacity:.6"><path class="a" d="m203.5 152h2.4v3.4q-1-1.7-2.5-2.7l0.1-0.7q0 0 0 0z"/></g><g style="opacity:.6"><path class="a" d="m200.1 162.6l-0.1-6.2c0.5-1.6 2.2-3.3 2.9-3.4 1.8 0.9 2.6 2.3 3.1 4l0.2 5.4-6.1 0.2q0 0 0 0z"/></g><path fill-rule="evenodd" class="a" d="m208.6 162.7l-0.4-10.8h6.2l0.3 10.7-6.1 0.1zm0-10.5l0.3 10.2 5.5-0.1-0.3-10.1z"/><path fill-rule="evenodd" class="a" d="m211.5 158.4c-0.7 0-1.2-0.5-1.2-1.2 0-0.7 0.5-1.2 1.2-1.2 0.7 0 1.2 0.5 1.2 1.2 0 0.7-0.5 1.2-1.2 1.2zm0-2.1c-0.5 0-0.8 0.4-0.8 0.9 0 0.5 0.3 0.9 0.8 0.9 0.5 0 0.9-0.4 0.9-0.9 0-0.5-0.4-0.9-0.9-0.9z"/><path class="a" d="m208.6 157.1h1.9v0.4h-1.9z"/><path class="a" d="m214.6 157.4h-2.1v-0.4h1.7c-0.6-1.8-1.6-3-2.9-3.8-1.6 1.1-2.4 2.3-2.5 3.9l-0.4-0.1q0.2-2.5 2.8-4.1l0.1-0.1 0.1 0.1c1.5 0.8 2.5 2.2 3.2 4.3 0 0 0.1 0.2 0 0.2z"/><path class="a" d="m209.3 154.8l0.3-0.2 1.4 1.6-0.3 0.3z"/><path class="a" d="m211.9 156.1l1.3-1.4 0.2 0.2-1.2 1.5z"/><path class="a" d="m210.4 157.7h0.4l0.1 4.8h-0.4z"/><path class="a" d="m212.3 157.6h0.3l0.3 4.8h-0.4z"/><path fill-rule="evenodd" class="a" d="m211.3 152.9c-0.3 0-0.4-0.2-0.4-0.5 0-0.2 0.1-0.4 0.4-0.4 0.2 0 0.4 0.2 0.4 0.4 0 0.3-0.2 0.5-0.4 0.5zm0-0.6q-0.1 0-0.1 0.1c0 0.1 0.2 0.1 0.2 0q0-0.1-0.1-0.1z"/><path class="a" d="m214.2 155.9c-0.5-1.3-1.3-2.2-2.5-3l-0.1-0.1 0.1-0.1q0-0.1 0-0.3 0-0.2-0.1-0.3l0.3-0.2q0.2 0.2 0.2 0.5 0 0.2-0.1 0.3c1.2 0.8 2 1.8 2.5 3.1 0 0-0.3 0.1-0.3 0.1z"/><path class="a" d="m208.7 155.4l-0.3-0.1c0.3-0.9 1.1-1.8 2.1-2.6q0-0.1 0-0.3 0-0.2 0.1-0.4l0.3 0.2q-0.1 0.1-0.1 0.2 0 0.2 0.1 0.3l0.1 0.1-0.2 0.1c-1 0.8-1.7 1.6-2.1 2.5z"/><g style="opacity:.6"><path class="a" d="m208.5 152.1h2.2v0.6q-1.4 1.2-2.2 2.4v-3q0 0 0 0z"/></g><g style="opacity:.6"><path class="a" d="m211.9 152.1h2.3l0.1 3.3q-1-1.7-2.5-2.6c0 0 0.1-0.7 0.1-0.7z"/></g><path class="a" d="m237.3 160.5l-0.4-10.1h0.4l0.3 9.7 5.3-0.3v0.4z"/><path class="a" d="m242.8 152.5l0.3-0.1 0.3 6.2h-0.4z"/><path class="a" d="m241.7 149.7h-4.2v-0.4l4.2 0.1z"/><path fill-rule="evenodd" class="a" d="m240.2 155.9c-0.7 0-1.2-0.5-1.2-1.2 0-0.7 0.5-1.2 1.2-1.2 0.6 0 1.2 0.5 1.2 1.2 0 0.7-0.6 1.2-1.2 1.2zm0-2.1c-0.5 0-0.9 0.4-0.9 0.9 0 0.5 0.4 0.9 0.9 0.9 0.4 0 0.8-0.4 0.8-0.9 0-0.5-0.4-0.9-0.8-0.9z"/><path class="a" d="m237.2 154.6h1.9v0.4h-1.9z"/><path class="a" d="m243.3 154.9h-2.1v-0.4h1.6c-0.6-1.8-1.5-3-2.9-3.8q-2.3 1.6-2.5 3.9h-0.3q0.2-2.6 2.7-4.2l0.1-0.1 0.1 0.1c1.6 0.8 2.6 2.2 3.2 4.3 0 0 0.1 0.2 0.1 0.2z"/><path class="a" d="m237.9 152.3l0.3-0.2 1.5 1.6-0.3 0.3z"/><path class="a" d="m240.8 153.9l-0.2-0.2 1.2-1.5 0.3 0.3z"/><path class="a" d="m239.1 155.3h0.3l0.1 4.7h-0.3z"/><path class="a" d="m240.9 155.1h0.4l0.2 5h-0.3z"/><path fill-rule="evenodd" class="a" d="m239.9 150.4c-0.2 0-0.4-0.2-0.4-0.5 0-0.2 0.2-0.4 0.4-0.4 0.3 0 0.5 0.2 0.5 0.4 0 0.3-0.2 0.5-0.5 0.5zm0-0.5q0 0 0 0c0 0.1 0.1 0.1 0.1 0q0 0-0.1 0z"/><path class="a" d="m242.9 153.4c-0.5-1.2-1.3-2.2-2.5-3l-0.2-0.1 0.1-0.1q0.1-0.1 0.1-0.3 0-0.1-0.1-0.3l0.2-0.2q0.2 0.2 0.2 0.5 0 0.2 0 0.3c1.2 0.8 2 1.8 2.5 3.1l-0.3 0.1z"/><path class="a" d="m237.4 152.9l-0.4-0.1c0.4-0.9 1.1-1.8 2.2-2.6q-0.1-0.1-0.1-0.3 0-0.2 0.2-0.4l0.3 0.2q-0.1 0.1-0.1 0.2 0 0.2 0 0.3l0.1 0.1-0.1 0.1c-1.1 0.8-1.8 1.7-2.1 2.5z"/><g style="opacity:.6"><path class="a" d="m237.5 150.3v-0.7h1.8v0.6q-1.4 1.3-2.1 2.5l-0.1-2.3 0.4-0.1z"/></g><path class="a" d="m244.6 158.7l-0.2-6.5h0.3l0.2 6.5z"/><path class="a" d="m245.1 159.8l5.2-0.1v0.4l-5.2 0.1z"/><path class="a" d="m250.2 150.5h0.3l0.2 8h-0.3z"/><path class="a" d="m245.2 149.3h4.4v0.3h-4.4z"/><path fill-rule="evenodd" class="a" d="m247.6 155.9c-0.7 0-1.2-0.6-1.2-1.3 0-0.7 0.5-1.2 1.2-1.2 0.6 0 1.2 0.5 1.2 1.2 0 0.7-0.6 1.3-1.2 1.3zm0-2.2c-0.5 0-0.9 0.4-0.9 0.9 0 0.5 0.4 0.9 0.9 0.9 0.4 0 0.8-0.4 0.8-0.9 0-0.5-0.4-0.9-0.8-0.9z"/><path class="a" d="m244.6 154.5h1.9v0.4h-1.9z"/><path class="a" d="m250.7 154.8h-2.1v-0.4l1.6 0.1c-0.6-1.9-1.5-3.1-2.9-3.8q-2.3 1.5-2.5 3.8h-0.3q0.2-2.6 2.7-4.2h0.1 0.1c1.5 0.8 2.6 2.2 3.2 4.3 0 0 0.1 0.2 0.1 0.2z"/><path class="a" d="m245.3 152.3l0.3-0.3 1.5 1.7-0.3 0.2z"/><path class="a" d="m248.2 153.8l-0.3-0.2 1.3-1.5 0.3 0.3z"/><path class="a" d="m246.5 155.1h0.3l0.1 4.8h-0.3z"/><path class="a" d="m248.3 155h0.4l0.2 4.8h-0.3z"/><path fill-rule="evenodd" class="a" d="m247.3 150.3c-0.2 0-0.4-0.2-0.4-0.4 0-0.3 0.2-0.5 0.4-0.5 0.3 0 0.5 0.2 0.5 0.5 0 0.2-0.2 0.4-0.5 0.4zm0-0.5q0 0 0 0.1c0 0 0.1 0 0.1 0q0-0.1-0.1-0.1z"/><path class="a" d="m250.3 153.3c-0.5-1.2-1.3-2.2-2.5-3l-0.2-0.1 0.1-0.1q0.1-0.1 0.1-0.2 0-0.2-0.1-0.4l0.2-0.2q0.2 0.2 0.2 0.6 0 0.1 0 0.2c1.2 0.8 2 1.8 2.5 3.1l-0.3 0.1z"/><path class="a" d="m244.8 152.9l-0.4-0.2c0.4-0.9 1.1-1.8 2.2-2.6q-0.1-0.1-0.1-0.2 0-0.3 0.2-0.5l0.3 0.2q-0.1 0.1-0.1 0.3 0 0.1 0 0.2l0.1 0.1-0.1 0.1c-1.1 0.8-1.8 1.7-2.1 2.6z"/><g style="opacity:.6"><path class="a" d="m244.8 151l0.1-0.5 0.3-0.1v-0.9h1.5v0.7c-0.9 0.8-1.7 1.5-2.1 2.3l-0.1-0.8z"/></g><g style="opacity:.6"><path class="a" d="m249.6 150.5h0.7l0.1 2.4q-1.1-1.7-2.5-2.7l0.1-0.7h1.6z"/></g><g style="opacity:.6"><path class="a" d="m245.1 160v-1.4l-0.4 0.1-0.1-4.8c0.5-1.6 2.1-3.3 2.8-3.4 1.7 0.9 2.6 2.3 3 4l0.1 4-0.2 0.1v1.2c0 0-5.2 0.2-5.2 0.2z"/></g><path fill-rule="evenodd" class="a" d="m217.4 162.6l-0.3-10.8h6.2l0.3 10.8h-6.2zm0-10.5l0.4 10.2 5.4-0.1-0.3-10.1z"/><path fill-rule="evenodd" class="a" d="m220.3 158.3c-0.6 0-1.2-0.5-1.2-1.2 0-0.7 0.6-1.2 1.2-1.2 0.7 0 1.2 0.5 1.2 1.2 0 0.7-0.5 1.2-1.2 1.2zm0-2.1c-0.4 0-0.8 0.4-0.8 0.9 0 0.5 0.4 0.9 0.8 0.9 0.5 0 0.9-0.4 0.9-0.9 0-0.5-0.4-0.9-0.9-0.9z"/><path class="a" d="m217.4 157h1.9v0.4h-1.9z"/><path class="a" d="m223.5 157.3h-2.1v-0.4h1.6c-0.6-1.8-1.5-3-2.9-3.8-1.6 1.1-2.4 2.3-2.5 3.9h-0.4q0.3-2.6 2.8-4.2l0.1-0.1 0.1 0.1c1.5 0.8 2.6 2.2 3.2 4.3 0 0 0.1 0.2 0.1 0.2z"/><path class="a" d="m218.1 154.7l0.3-0.2 1.4 1.6-0.2 0.3z"/><path class="a" d="m221 156.3l-0.3-0.2 1.3-1.5 0.3 0.3z"/><path class="a" d="m219.3 157.6h0.3l0.1 4.8h-0.3z"/><path class="a" d="m221.1 157.5h0.4l0.2 4.8h-0.4z"/><path fill-rule="evenodd" class="a" d="m220.1 152.8c-0.2 0-0.4-0.2-0.4-0.5 0-0.2 0.2-0.4 0.4-0.4 0.2 0 0.4 0.2 0.4 0.4 0 0.3-0.2 0.5-0.4 0.5zm0-0.5q-0.1 0-0.1 0c0 0.1 0.2 0.1 0.2 0q0 0-0.1 0z"/><path class="a" d="m223 155.8c-0.5-1.2-1.3-2.2-2.4-3l-0.2-0.1 0.1-0.1q0.1-0.1 0.1-0.3 0-0.1-0.1-0.3l0.2-0.2q0.2 0.2 0.2 0.5 0 0.2 0 0.3c1.1 0.8 2 1.8 2.5 3.1z"/><path class="a" d="m217.5 155.3l-0.3-0.1c0.4-0.9 1.1-1.8 2.1-2.6q0-0.1 0-0.3 0-0.2 0.1-0.4l0.3 0.2q0 0.1 0 0.2 0 0.2 0 0.3l0.1 0.1-0.1 0.1c-1.1 0.8-1.8 1.7-2.2 2.5q0 0 0 0z"/><g style="opacity:.6"><path class="a" d="m217.3 152h2.2v0.6q-1.4 1.3-2.1 2.4l-0.1-3q0 0 0 0z"/></g><g style="opacity:.6"><path class="a" d="m220.7 152h2.3l0.1 3.4q-1-1.7-2.4-2.7c0 0 0.1-0.7 0-0.7z"/></g><g style="opacity:.6"><path class="a" d="m217.5 162.5l-0.1-6.1c0.5-1.7 2.1-3.3 2.8-3.4 1.7 0.9 2.5 2.3 3 4l0.1 5.3c0 0-5.8 0.2-5.8 0.2z"/></g><path class="a" d="m256.7 162.7v-0.4h0.6l-0.3-10h-2.7v-0.4h3.1l0.3 10.8z"/><path class="a" d="m254.7 158.4l-0.1-0.3c0.4-0.1 0.7-0.5 0.7-0.9 0-0.4-0.3-0.8-0.8-0.8v-0.4c0.7 0.1 1.1 0.6 1.1 1.2 0 0.6-0.4 1.1-0.9 1.2z"/><path class="a" d="m257.6 157.4h-2.1v-0.3h1.6c-0.6-1.9-1.5-3-2.8-3.8l0.1-0.3c1.5 0.8 2.5 2.2 3.1 4.2 0 0 0.1 0.2 0.1 0.2z"/><path class="a" d="m255.1 156.4l-0.3-0.2 1.3-1.4 0.3 0.2z"/><path class="a" d="m255.2 157.6h0.4l0.1 3.5-0.4 0.1z"/><path class="a" d="m257.1 156c-0.5-1.3-1.3-2.3-2.5-3l-0.1-0.1 0.1-0.2q0.1-0.1 0.1-0.2 0-0.2-0.2-0.3l0.3-0.3q0.2 0.3 0.2 0.6 0 0.1 0 0.2c1.1 0.8 1.9 1.8 2.5 3.1l-0.4 0.2q0-0.1 0 0z"/><g style="opacity:.6"><path class="a" d="m254.8 152.1h2.3l0.1 3.4q-1-1.7-2.5-2.7c0 0 0.1-0.7 0.1-0.7z"/></g><path class="a" d="m225.6 162.5l-0.4-10.9h4.6v0.4h-4.2l0.3 10.2 4.6-0.1v0.3z"/><path fill-rule="evenodd" class="a" d="m228.5 158.2c-0.6 0-1.2-0.6-1.2-1.2 0-0.7 0.6-1.3 1.2-1.3 0.7 0 1.2 0.6 1.2 1.3 0 0.6-0.5 1.2-1.2 1.2zm0-2.1c-0.5 0-0.8 0.4-0.8 0.9 0 0.5 0.3 0.8 0.8 0.8 0.5 0 0.9-0.3 0.9-0.8 0-0.5-0.4-0.9-0.9-0.9z"/><path class="a" d="m225.6 156.9h1.9v0.4h-1.9z"/><path class="a" d="m225.8 156.9l-0.4-0.1q0.2-2.5 2.8-4.1l0.1-0.1 0.1 0.1q1 0.5 1.7 1.3l-0.3 0.3q-0.6-0.8-1.5-1.3c-1.6 1-2.4 2.3-2.5 3.9q0 0 0 0z"/><path class="a" d="m229.5 157.1v-0.3h0.7v0.4z"/><path class="a" d="m226.3 154.6l0.3-0.2 1.4 1.6-0.3 0.2z"/><path class="a" d="m229.2 156.2l-0.3-0.3 1-1.1 0.3 0.2z"/><path class="a" d="m227.4 157.5h0.4l0.1 4.8h-0.4z"/><path class="a" d="m229.3 157.4h0.3l0.2 4.8h-0.3z"/><path fill-rule="evenodd" class="a" d="m228.3 152.6c-0.3 0-0.4-0.2-0.4-0.4 0-0.2 0.1-0.4 0.4-0.4 0.2 0 0.4 0.2 0.4 0.4 0 0.2-0.2 0.4-0.4 0.4zm0-0.5q-0.1 0-0.1 0.1c0 0.1 0.2 0.1 0.2 0q0-0.1-0.1-0.1z"/><path class="a" d="m229.8 153.6q-0.5-0.5-1.1-0.9l-0.1-0.1 0.1-0.2q0-0.1 0-0.2 0-0.2-0.1-0.3l0.3-0.2q0.2 0.2 0.2 0.5 0 0.1-0.1 0.3 0.6 0.4 1.1 0.8z"/><path class="a" d="m225.7 155.2l-0.3-0.1c0.3-0.9 1.1-1.8 2.1-2.6q0-0.2 0-0.3 0-0.2 0.1-0.5l0.3 0.2q-0.1 0.2-0.1 0.3 0 0.1 0.1 0.2l0.1 0.2-0.2 0.1c-1 0.8-1.8 1.6-2.1 2.5z"/><g style="opacity:.6"><path class="a" d="m225.5 151.9h2.2v3h-2.2z"/><g clip-path="url(#cp30)"><path class="a" d="m225.5 151.9h2.2v3h-2.2z"/><g clip-path="url(#cp31)"><path class="a" d="m225.5 151.9h2.2v0.6q-1.4 1.2-2.2 2.4v-3q0 0 0 0z"/></g></g></g><g style="opacity:.6"><path class="a" d="m228.8 151.9h1.1v1.6h-1.1z"/><g clip-path="url(#cp32)"><path class="a" d="m228.8 151.9h1.1v1.6h-1.1z"/><g clip-path="url(#cp33)"><path class="a" d="m229.9 153.5q0-0.1 0-0.1-0.5-0.5-1.1-0.9l0.1-0.6h1"/></g></g></g><g style="opacity:.6"><path class="a" d="m230.5 162.2l-4.8 0.1-0.1-6c0.5-1.7 2.1-3.3 2.7-3.5q1 0.6 1.7 1.3"/></g><path class="a" d="m185 162.8l5.3-0.2v0.4l-5.3 0.1z"/><path class="a" d="m88.2 136.5l0.6-1.1 0.3 0.2-0.5 1.1z"/><path fill-rule="evenodd" class="a" d="m217.6 162.7h-3.2v-0.9l0.6-0.2 0.2-0.5h1.6l0.3 0.5 0.5 0.2zm-2.8-0.4h2.4v-0.2l-0.4-0.2-0.2-0.4h-1.2l-0.2 0.4-0.4 0.2z"/><path fill-rule="evenodd" class="a" d="m225.9 162.5h-2.6v-0.7l0.5-0.2 0.2-0.3h1.3l0.2 0.3 0.4 0.2c0 0 0 0.7 0 0.7zm-2.2-0.3h1.8v-0.2l-0.3-0.1-0.1-0.3h-0.9l-0.2 0.3-0.3 0.1z"/><path class="a" d="m256.9 137.5l-0.4-10.3 0.9-0.8-68.4-1.4v-0.4l69.2 1.4-1.3 1.4 0.3 10.1z"/><path class="a" d="m259.7 162.7l-0.4-12.7h-2.4l-0.1-4.3c-0.2-3.9-3-4.4-3.1-4.4l0.1-0.3c0 0 3.1 0.4 3.4 4.7v4h2.5l0.4 12.7 9.5-0.1-0.9-23.4 0.9-1.1-15.5-0.1v-0.4l16.3 0.2-1.4 1.5 1 23.6-10.3 0.1z"/><path class="a" d="m254 138l-0.3-0.3 0.4-0.5-21.2-0.2-3.2 0.3-40.3-0.4v-0.4l40.3 0.4 3.2-0.3 21.9 0.3z"/><path class="a" d="m254.7 161.3l-1.3-23.2 0.8-1 0.2 0.3-0.7 0.8 1.3 23z"/><path class="a" d="m204.3 136.9c-0.3-1.8-1.7-3.1-3.5-3.1-1.8 0-3.4 1.2-3.7 3l-0.4-0.1c0.4-1.9 2.1-3.2 4-3.2h0.1c1.9 0 3.6 1.4 3.9 3.3z"/><path class="a" d="m212.8 136.9c-0.3-1.8-1.8-3.1-3.5-3.1-1.8 0-3.4 1.2-3.7 3l-0.4-0.1c0.4-1.9 2.1-3.2 4-3.2h0.1c1.9 0 3.5 1.4 3.9 3.3z"/><path class="a" d="m221.3 137.1c-0.3-1.7-1.8-3-3.6-3.1-1.8 0-3.3 1.2-3.6 3l-0.4-0.1c0.4-1.9 2.1-3.3 4-3.2 2 0 3.6 1.4 3.9 3.3z"/><path class="a" d="m229.6 137.2c-0.3-1.7-1.8-3-3.6-3-1.8-0.1-3.3 1.2-3.6 2.9h-0.4c0.4-2 2.1-3.3 4.1-3.3 1.9 0 3.5 1.5 3.8 3.4z"/><path class="a" d="m254.9 137.5c-0.3-1.7-1.8-3-3.4-3-1.5 0-2.8 1.1-3.2 2.5l-0.3-0.1c0.4-1.6 1.9-2.7 3.5-2.7 1.7 0 3.4 1.4 3.7 3.3 0 0-0.3 0-0.3 0z"/><path class="a" d="m238.7 129.1l0.1 0.1q0 0 0 0.1 0 0 0 0.1v0.1h-0.2v-0.1q-0.1-0.1-0.1-0.1 0-0.1 0.1-0.1v-0.2q-0.1 0-0.1-0.1 0.1 0 0.1-0.1v-0.1q0 0-0.1-0.1 0.1-0.1 0.1-0.1l0.1-0.3v0.3q0.1 0 0.1 0.1 0 0.1-0.1 0.1v0.1q0.1 0.1 0.1 0.1 0 0.1-0.1 0.2z"/><path class="a" d="m251.6 134v0.1q0 0 0 0.1 0 0 0 0v0.1h-0.2v-0.1c0 0 0 0 0 0q0-0.1 0.1-0.1v-0.1q-0.1 0-0.1-0.1 0 0 0.1 0v-0.1q-0.1 0-0.1-0.1 0 0 0.1-0.1v-0.2 0.2q0.1 0.1 0.1 0.1 0 0.1-0.1 0.1v0.1q0.1 0 0.1 0 0 0.1 0 0.1z"/><path class="a" d="m234.3 162.6l-1.3-24.1-0.3-1.7h0.3l0.3 1.6 1.3 24.1z"/><path class="a" d="m195.6 136.8h-0.3v-0.1c-0.1-1.8-1.5-3.2-3.3-3.2-0.9 0-1.7 0.4-2.3 1l-0.2 0.2-0.3-0.2 0.2-0.2c0.7-0.7 1.6-1.1 2.6-1.1 2 0 3.6 1.5 3.6 3.5v0.1q0 0 0 0z"/><path class="a" d="m194.1 130.6h1.7v3.3h-1.7z"/><path class="a" d="m202.7 130.7h1.7v3.3h-1.7z"/><path class="a" d="m212.6 134.2h-0.9c-0.5 0-0.9-0.4-0.9-0.9v-2.5h1.8z"/><path class="a" d="m220.9 134.3h-0.9c-0.5 0-0.8-0.3-0.8-0.8v-2.5h1.7z"/><path class="a" d="m229.3 134.6h-1.3c-0.1 0-0.5-0.2-0.5-0.4v-3h1.8z"/><path class="a" d="m257.4 126.8l-68.3-1.3v-0.4l68.3 1.3z"/><path class="a" d="m230.3 162.3l-1.5-25.1h0.3l1.6 25.1z"/><path class="a" d="m189.4 137.3v-0.4l39.6 0.6v0.3z"/><path class="a" d="m189.4 137.7v-0.3l39.6 0.6v0.3z"/><g style="opacity:.6"><path class="a" d="m234.4 162.6h-0.6l-5.5-0.3-0.2-2.6v-19.9c-0.4-1.1 0.7-2.6 0.7-2.6l4.1-0.3 0.3 1.7 1.2 24z"/></g><path class="a" d="m230.9 137l-0.2-1-0.3-0.4-0.5-0.8 3.9-0.3 7-0.3 6.1 0.2 1.7 0.3-0.5 0.9-0.3 0.3v0.9h-0.4v-1.1l0.5-0.4 0.1-0.3-1.1-0.3-6.1-0.1-7 0.2-3.3 0.3 0.2 0.3 0.3 0.5 0.3 1.1z"/><path class="a" d="m230.5 135.5v-0.3l3.7-0.3 6.7-0.3 5.9 0.1 1.4 0.4-0.1 0.3-1.4-0.3-5.8-0.1-6.7 0.2z"/><path class="a" d="m230.8 135.9v-0.3l3.3-0.3 6.8-0.1h5.7l1.1 0.3-0.1 0.4-1-0.3-5.7-0.1-6.8 0.1z"/><path class="a" d="m232.9 134.7h-0.4c0.6-3.2 3.4-5.5 6.6-5.5 3.2 0 5.9 2.2 6.6 5.3h-0.4c-0.6-2.9-3.2-4.9-6.2-4.9-2.9 0-5.7 2.1-6.2 5.1z"/><g style="opacity:.6"><path class="a" d="m241.1 134.4l-0.2 0.7-0.2 0.3-0.1 0.5-2 1-4-0.1-0.1-1.1-0.5-0.5-0.1-0.3-0.4-0.2z"/></g><path class="a" d="m189 125.9l0.1-0.4 67.7 1.4v0.4z"/><path class="a" d="m196.1 145.8v3.3h-5.2v-3.3c0-1.1 0-2.3 0.4-3.3q0.6-1.3 2.1-1.8 0.1 0 0.2 0.1c1.9 0.8 2.5 2.8 2.5 5z"/><path class="a" d="m205.2 146v3.3h-5.3v-3.3c0-1.1 0-2.3 0.4-3.2q0.6-1.4 2.1-1.9 0.1 0 0.2 0.1c1.9 0.8 2.6 2.8 2.6 5z"/><path class="a" d="m213.7 146.3v3.3h-5.3v-3.3c0-1.1 0.1-2.3 0.5-3.3q0.6-1.3 2.1-1.9 0.1 0.1 0.2 0.1c1.9 0.9 2.5 2.8 2.5 5.1z"/><path class="a" d="m222.5 146.2v3.2h-5.5v-3.3c0-1.1 0-2.3 0.5-3.2 0.4-0.9 1.2-1.5 2.2-1.9q0.1 0 0.2 0.1c2 0.9 2.6 2.8 2.6 5.1z"/><path class="a" d="m225.3 149.3v-3.3c0-1.1 0-2.3 0.4-3.3 0.4-0.9 1.3-1.5 2.3-1.8q0.1 0 0.2 0.1 0.6 0.3 1.1 0.7l0.4 7.6c0 0-4.4 0-4.4 0z"/><path class="a" d="m199.6 149.8h-2.7v-4c0-2.7-1-4.4-3-5.1-2.7 0.8-3 2.8-3 5.1v3.8h-1.1v-0.4h0.8v-3.4c0-2.3 0.2-4.6 3.3-5.4h0.1q3.2 1.1 3.2 5.4v3.7h2.4v0.3q0 0 0 0z"/><path class="a" d="m208.3 150h-2.4v-4c0-2.7-1-4.4-3-5-2.7 0.7-2.9 2.8-2.9 5v3.8h-1.1v-0.3h0.7v-3.5c0-2.3 0.3-4.6 3.3-5.4h0.1q3.2 1.1 3.3 5.4v3.7h2v0.3q0 0 0 0z"/><path class="a" d="m216.9 150.3h-2.5v-4.1c0-2.7-0.9-4.4-2.9-5-2.8 0.7-3 2.8-3 5v3.8h-1.1v-0.3h0.8v-3.5c0-2.3 0.2-4.6 3.2-5.4h0.1q3.3 1.1 3.3 5.4v3.7h2.1v0.3q0 0 0 0.1z"/><path class="a" d="m217.1 150.2h-0.3v-4.1c0-2.3 0.2-4.6 3.2-5.4h0.1q3.3 1.1 3.3 5.4v3.7h2v0.3h-2.4v-4c0-2.7-0.9-4.4-2.9-5.1-2.8 0.8-3 2.8-3 5.1z"/><path class="a" d="m225.5 150h-0.3v-4.1c0-2.3 0.2-4.6 3.2-5.4h0.1q0.4 0.1 0.7 0.3l-0.1 0.3q-0.3-0.1-0.6-0.2c-2.8 0.7-3 2.8-3 5z"/><path class="a" d="m229 137.8v-0.3l3.8-0.3 21.2 0.2v0.4l-21.1-0.3z"/><path class="a" d="m229.1 138.3v-0.3l3.9-0.3 21 0.1v0.4l-21-0.2z"/><g style="opacity:.6"><path class="a" d="m237.5 162.6h-2.2v-2h0.5l-0.1 0.4 0.5-0.1v0.4h0.4v0.4h0.4v0.4h0.5z"/></g><path class="a" d="m235.3 160.2l17-0.5 0.1 0.3-17.1 0.5z"/><path class="a" d="m252.2 159.5l-0.4-8.9h-1.4v-0.1c0.1-3.3-0.9-5.1-2.9-5.8-1.7 0.7-2.3 2.5-2.1 5.7v0.2h-2.6v-0.2c0.1-3.3-0.7-4.9-2.8-5.7-1.9 0.6-2.6 2.3-2.3 5.6v0.2h-3.9v-0.3h3.5c-0.2-2.5 0-5 2.6-5.8h0.1c2.3 0.7 3.2 2.5 3.1 5.8h1.9c-0.1-2.1 0-4.9 2.4-5.8h0.1q3.3 1 3.3 5.9h1.3l0.4 9.2h-0.3q0 0 0 0z"/><path class="a" d="m124 79.5l-0.9-0.2q0.4 0.1 0.9 0.2z"/><path class="a" d="m146.6 108.6v-0.1 0.1z"/><path fill-rule="evenodd" class="a" d="m164.5 221.3q-0.5-4.6-3.9-13.9-3.1-8.7-3.2-8.7 0-1.6 0.9-4.5 0-0.2 0.2-0.2 0.2 0 0.4 0.2 1.1 1.3 3.1 5.4 2.4 5.1 3.5 10.2 1.1 5.9 2.3 11.8 1 4.9 3.6 9.2 2.2 3.7 6.6 5.4 0-6.1 3.2-8 2.7-1.7 9.4-4.3h-20.2q-0.8 0-1.1-0.2-0.1-0.1-0.1-0.5 0-0.2 0-0.4 0.3-3.4 2.1-5.7 5.1-6.4 16.7-12.1-0.5-0.9-1.4-2.8-0.5-0.8-0.5-2.2 0-2.1 1.1-3.5 1.2-1.8 3.7-1.8 2 0 5.6 2.5 3.8 2.6 3.8 4.3-0.5 2.4-1.3 4.3-3.1 1-7.5 2.3 0.1 0.5 0.1 0.9 0 1.6-0.6 1.7-0.4 0-1-1.9-3.3 1.3-8.4 4.4-5 3.1-7.2 5.4 2.9 0.3 8.4 0.3 6.6 0 16.6-0.4 9.2-0.3 9.2-0.3 0 0 0 0 0.5 0 0.6 0.2 0 0 0 0 0 0.2-0.2 0.7l-1.2 3.3q-0.3 0.6-0.9 0.8-27.3 8.7-27.3 10.7 0 1.7 8.4 5.4 0.4 0.2 0.3 0.7 0 0.1 0 0.1l-0.3 3.6q-0.1 0.6-0.8 0.6-2.6 0-6.5-1.3-5.5-1.8-8.7-5-3.1-3-4.6-7.4-0.8-2.5-2-8.6 0 1.1-0.1 2-0.2 2.1-0.8 2.9-4 6-10.3 10.7-6.8 5-11.5 5-2.8 0-4.3-2.3-1.2-2-1.2-4.9 0-5.6 2.3-11.5 0.6-1.2 0.8-1.2 0.1 0 0.1 0.2 0 0.4-0.2 1.3-1.7 5.8-1.7 8.6 0 2.2 1.4 3.4 1.2 1 3.1 1 5.1 0 13.2-6.5 7.6-6 8.3-9.4zm30.1-18.9q0-0.7-2.5-1.7-2.1-0.9-3.3-0.9-0.2 0-0.4 0-0.3 0.1-0.4 0.3 0.1 0 0.1 0.1 0.4 1.1 1.8 3.9 3.7-1.2 4.7-1.7z"/><path class="a" d="m169 208.1q3.5-2.2 9.2-4.7 5.1-2.2 5.6-2.2 0.1 0 0.1 0.1 0 0.2-0.3 0.7-0.3 0.5-0.5 0.6-1.6 0.6-6.4 2.9-5.3 2.5-8.3 4.3 0.1-0.8 0.6-1.7z"/><path class="a" d="m138.8 181.4q0-2.1-0.7-3.5 0-0.8 1.2-3.7 0.2-0.4 0.3-0.4 0.1 0 0.3 0.4 0.4 0.8 1.7 4.2 1.3 3.6 1.6 4.4 0.1 0.6 0.1 0.9 0 1-1.8-1.2-0.2-0.3-0.2 0.3 0 0.2 1 13.8 0.9 13.5 0.9 15.2 0 5.2-1.6 9.2-0.3 0.8-0.6 1.1-0.3 0.5-0.3 0.1-0.1-0.4 0-1.7 0.2-1.7 0.2-4.1 0-2.1-1.1-17.6-1-15.5-1-17.4"/><path class="a" d="m134 208.8q0 6.5-2.4 10.2-1.9 3.1-4.6 3.1v-4.5q2.1 0 4.1-1.6 0.6-0.5 0.6-3.6 0-1.9-0.9-15.1-1-13.2-1-15.6 0-2.1-0.7-3.5 0-0.8 1.3-3.7 0.1-0.4 0.3-0.4 0.1 0 0.3 0.4 0.3 0.8 1.6 4.2 1.4 3.6 1.6 4.4 0.2 0.7 0.2 0.9 0 0.4-0.2 0.4-0.4 0-1.7-1.5-0.1-0.1-0.1-0.1-0.1 0-0.1 0.4 0 0.1 0.8 11.7 0.9 11.6 0.9 13.9z"/><path fill-rule="evenodd" class="a" d="m79.4 224.6q-11.7 0-18.5-2.8v-4.5q5.9 2.9 19.7 2.9 15.9 0 32.5-6.8-3.4-3.3-5.4-3.3-0.4 0-2 0.7-0.5 0.2-0.7 0.2-0.2 0-0.2-0.2 0-0.2 0.2-0.7l1.3-3.1q0.4-0.8 2.9-1.5 2.9-0.8 6.6-0.8 3.6 0 7.1 1 2.5 0.8 4 1.8 1 0.6 0.9 1.1 0 0.2-0.1 0.5-0.7 1.5-1.9 3.1-2.4 0.9-5.6 2.1 3.3 3.3 6.8 3.3v4.5q-3 0-5.5-1.3-2.2-1.2-5.8-4.6-10.2 4.2-17.3 6-9.4 2.4-19 2.4zm38.1-12.9l4.1-1.8q-1.7-1.1-5-1.1-1 0-2.1 0.1 1.3 0.9 3 2.8z"/><path class="a" d="m46.9 216.8q0 1.1 1.1 2.3 0 0.4-0.7 0.7-0.6 0.4-1.1 0.4-0.2 0-0.3-0.1-0.4-1.4-0.4-2.4 0-0.1 0-0.3 0.4-4.2 2.5-7.2 1.9-2.7 3.7-2.8 0.6 0 1.7 1.9 1.7 2.9 2.6 4.1 2 2.6 4.9 4v4.4q-3.8-1.5-6.1-4.1-1.3-1.5-2.5-4-1-1.8-1.5-1.8-0.8 0-2.3 1.7-1.6 1.9-1.6 3.2z"/><path class="a" d="m48.1 225.8l-2.4-6q0 0 0-0.1 0-0.3 0.5-0.6 0.6-0.3 1.2-0.3 0.2 0 0.4 0.1 2.2 2.4 7.5 4.2 0.3 0.1 0.3 0.5 0 0.1 0 0.2l-0.4 3.5q-0.1 0.5-0.5 0.5-0.1 0-0.2 0-2.5-0.5-6.4-2z"/><path class="a" d="m45.1 218.9q1.7 1.7 3.7 2.7v4.4q-2.7-1.1-4-2.1-2-1.5-3.1-3.9-1.3-2.6-1.7-13.6-0.5-14.8-0.7-16.4-0.5-5.4-1.7-8 0-1 1.1-3.5 0.2-0.5 0.3-0.5 0.2 0 0.4 0.4 1.3 2.6 2 9 0.3 2.3 0.5 9.5 0.1 4.6 0.2 9.2 0.5 10.4 3 12.8z"/><path class="a" d="m36.3 217.7q0 4.2-1.9 6.3-2.9 3.5-8.6 6.7-7.2 4-13.5 4-8.4 0-11.5-8.2-0.7-1.6-0.6-4.1 0-1.7 0.2-3.4 0.4-2.5 1.1-4.4 0.3-0.6 0.5-0.6 0.2 0 0.1 0.8-0.3 1.2-0.6 2.3-0.4 2.1-0.4 3.1 0 3.4 2.2 6.3 3.1 3.8 9 3.8 5.1 0 10.8-2.5 4.7-1.9 8.4-4.8 3.3-2.6 3.3-3.7 0-0.2-1.3-3-1.7-3.2-2.5-6.2-0.3-1.1-0.7-1.4-0.4-0.4-0.4-0.8 0-0.3 0.6-3.3 0.1-0.5 0.3-0.5 0.1 0 0.4 0.2 0.9 1 3.7 3.8 0.4 0.4 0.4 0.7 0 0.3-0.5 0.3-0.6 0-1.8-0.3 0.1 0.3 1.9 3.9 1.4 2.9 1.4 5z"/><path class="a" d="m83.7 174.5q-0.4 1.1-0.6 1.3 0 0-19.9 7.5-15.3 5.7-17 6.6-1.7 0.9-1.7 1.2 0 0.2 0.6 0.5 0.5 0.2 1.7 0.6 0.2 0.1 0.2 0.9 0 0.7-0.1 0.8 0 0.1-0.2 0.1-0.1 0-0.3 0-2.7-0.5-2.7-1.9 0-0.8 0.8-2 0.7-1.3 1.5-1.8 1.1-0.7 17.2-6.7 10-3.6 20.2-7.3 0.3-0.2 0.4-0.2 0 0 0 0 0 0.1 0 0.1 0 0.1-0.1 0.3z"/><path class="a" d="m50.8 201.3l1.1-2.4q0.1-0.3 0.3-0.3 0.2 0 1.9 1.2 1.7 1.2 1.7 1.4 0 0.7-1.5 3.1-0.1 0.2-0.2 0.2-0.1 0-0.2 0-1.4-1.1-3.3-2.3-0.6 1.4-1.2 2.4-0.1 0.2-0.3 0.2 0 0-0.1-0.1-1.7-1.2-3.5-2.4 0 0 0-0.1 0 0 0-0.1l1.5-3q0.1-0.2 0.3-0.2 0.2 0 1.6 0.9 1.4 1 1.9 1.5zm-4.1-4.6q0 0 0-0.1 0-0.1 0-0.2l1.5-2.9q0.1-0.3 0.3-0.3 0.2 0 1.9 1.2 1.7 1.2 1.7 1.4 0 0.7-1.5 3.1-0.1 0.2-0.3 0.2 0 0-0.1 0-1.7-1.3-3.5-2.4z"/><path class="a" d="m12.9 207.6q0-0.1 0-0.1 0-0.1 0-0.2l1.4-2.9q0.2-0.3 0.3-0.3 0.2 0 1.9 1.2 1.7 1.1 1.7 1.3 0 0.8-1.5 3.2-0.1 0.2-0.2 0.2-0.1 0-0.1 0-1.7-1.3-3.5-2.4z"/><path fill-rule="evenodd" class="a" d="m117.4 183.3q0.1 0.2 0.1 0.5-0.1 1-0.5 2.6 1 0.6 1.3 1.1 0 0.5-1 1.9-0.2-0.5-1.2-1.1-1.2 1.7-3 3-2.9 2-5.8 3.3-0.9 0.5-5 2-0.5 0.2-0.7 0.2-0.1 0-0.1-0.1 0-0.1 0.6-0.5 3.4-2 6.9-3.9 4.7-2.8 6.3-4.4-1.3-0.6-1.8-1.2-0.2 0.7-0.8 1.5-0.9 1.1-1.9 1.1-1.2 0-1.2-2.1 0-2.8 2.7-5.9 1.4-1.7 3.4-2.9 2-1.2 3.1-1.2 1.1 0 1.1 1 0 0.2-0.1 0.4-0.5 3-2.4 4.7zm-0.1-0.6q1.4-1.7 1.4-2.5 0-1-0.8-1-0.9 0-2.4 0.8-1.6 0.9-2.9 2.3-2.2 2.3-2.2 4 0 1 0.8 1 0.8 0 1.4-0.5 0.6-0.5 0.6-1.1 0-1.4 1.3-2.6 1-1 1.8-1 0.2 0 0.4 0.1 0.4 0.1 0.6 0.5zm-1.2 3.3q0.2-0.4 0.2-0.8 0-0.3-0.1-0.5-0.1-0.7-0.6-0.7-0.3 0-0.7 0.2-0.4 0.3-0.4 0.5 0 0.5 1.6 1.3z"/><path class="a" d="m19 190.8q0 0.6-1.5 2.7-1.7 2.3-3.2 3.3-0.9 0.7-6.3 2.2-0.8 0.1-0.9 0.1-0.1 0-0.1 0 0.1-0.1 0.7-0.5 0.7-0.6 3.8-2.2 3-1.6 3.6-2.1 0.1-0.1 0.1-0.2 0-0.7-5.4-0.7 0 0-2.1 0.1-0.2 0-0.3 0-0.6 0-0.6-0.1 0-0.1 0.2-0.6l1.3-2.1q0.5-1 2-1.2 0.5-0.1 2.5-0.1 6.2 0 6.2 1.4z"/><path fill-rule="evenodd" class="a" d="m61.4 191.2q2.2 1.6 2.2 3.2 0 0.1 0 0.2-0.1 1.9-0.5 2.3-1 1.4-2.5 1.4-1.5 0-1.5-1.7 0-0.4 0.1-0.9 0.3-1.4 1.6-4.7 0.9-2.3 0.9-4.9 0-1.1-0.1-2.4-0.2-2.1-1.4-3.6-0.1-0.2-2-2-0.1-0.2-0.1-0.3 0-0.1 0.1-0.2l0.6-1.2q0.1-0.1 0.2-0.1 0 0 0.1 0.1 2.7 2.2 3.4 6.4 0.1 1 0.1 2.2 0 3.7-1.1 6.2m1.5 3.9q0-0.6-2.4-1.9-0.7 1.4-0.7 2.5 0 0.7 0.7 0.7 0.6 0 1.3-0.4 0.8-0.4 1.1-0.9z"/><path fill-rule="evenodd" class="a" d="m54.7 231.9q0.1-0.2 0.2-0.2 0.1 0 0.3 0.1 0.8-1.7 1.8-1.7 0.6 0 1.2 0.8 0.6 0.8 0.6 1.9 0 0.4-0.1 0.8-0.4 1.7-1.1 1.7-0.6 0-1.7-0.7-0.9-0.6-1.4-1.2-0.6 1.9-1.6 3-1.7 1.9-4.5 3.5-2.3 1.2-2.9 1.2-0.1 0-2.6 0.6-2.6 0.7-3.3 0.8-0.6 0.1-0.8 0.1-0.1 0-0.1-0.1 0 0 1-0.5 2.7-1.1 8.3-3.7 4.2-2.3 5.3-3.9 0.5-1 1.4-2.5zm3.2 1.3q0-0.3-0.4-0.8-0.4-0.4-0.7-0.4-0.6 0-0.9 0.5 0.5 0.5 1.7 1 0.2 0.1 0.2 0.1 0.1 0 0.1 0 0.1-0.1 0.1-0.2 0-0.1-0.1-0.2z"/><path class="a" d="m114.3 232.5q2.2 0 4.7-0.7 0.5-0.1 0.7-0.1 0 0 0 0 0 0.1-0.5 0.5-2.2 2-5.7 2-1.1 0-1.8-0.5-0.7-0.6-0.7-1.5 0-2.3 2-4.8-1.8-0.5-1.8-1.9 0-1.1 1.4-2.7 1.4-1.5 2.3-1.5 0.2 0 0.4 0.3 0.3 0.4 0.3 0.8 0 0.2-0.5 0.9-0.4 0.5-0.5 0.5 0 0 0 0-0.2-0.7-0.8-0.7-0.3 0-0.8 0.5-0.4 0.6-0.4 0.9 0.5 0.9 1.9 0.9 0.4 0 1.4-0.8 0.5-0.5 1.1-1 0.1-0.1 0.1-0.1 0.1 0 0.1 0.4 0 1-0.7 2.1-3 1.9-4.4 4.5-0.3 0.5-0.3 0.9 0 1.1 2.5 1.1z"/><path class="a" d="m96.3 193.2q0 0.5-0.2 1.1-0.3 0.9-0.7 0.8-0.1 0.1-0.7-0.6-0.5-0.7-1-0.7-1.2 0-2.2 6.4-1 6.3-1.9 6.4-0.6-2.5-1.2-5.1-1.2-5.1-1.9-5.1-0.3 0-0.5 0.2-0.1 0.2-0.5 0.2-0.5 0-1.4-0.7-0.9-0.7-0.9-1.2 0-0.2 0.7-1.5 0.8-1.2 1-1.2 3.6 0 5.2 10.4 0.3-0.5 0.7-4.2 0.5-3.8 0.8-4.7 1.3-2.8 2.7-2.9 0.6 0 1.3 0.9 0.7 0.8 0.7 1.5zm-12.6 1q0 0 0 0.1 0 0.6-0.8 2.2-2.6 4.7-8.7 7.9-2.3 1.2-10.4 4.1-0.8 0.3-1.1 0.3-0.1 0-0.1-0.1 0.1-0.2 0.9-0.7 2-1.4 7-3.9 5.2-2.7 7-3.9 1.1-0.6 3.1-2.6 2.1-1.9 2.6-2.8 0.2-0.2 0.5-0.6z"/><path class="a" d="m25.2 214.3q0.1-0.2 0.2-0.2 0 0 0 0 0 0 0 0 0 0 0 0.1 0 0.1 0 0.1-0.1 1.3-0.7 2.3-0.6 1-1.2 1h-0.1q-0.7 0-1-0.7-0.4-0.7-0.4-1.9 0-0.1 0-0.2 0.1-1.7 1.3-4.8 1-2.8 1.8-4 0.3-0.5 0.4-0.5 0 0 0 0 0 0.1-0.2 0.6-1.7 3.7-2.2 6-0.2 1-0.2 1.7 0 1 0.4 1.5 0.3 0.4 0.5 0.4 0.1 0 0.1 0 0.7-0.1 1.3-1.4z"/><path fill-rule="evenodd" class="a" d="m298.8 209.5l-1.2 2.9q-0.1 0.5-0.6 0.5c-1.5 0-5.2 0.2-6.5 0.6q-2.2 0.9-8 4-7.8 4-11.4 4-0.4 1.8-0.7 1.8c-0.3 0-0.3-0.6-0.5-1.7-0.1-0.4-0.2-0.7-0.2-0.7 0-0.6-0.2-1.5-0.9-3.8q-0.9-3.2-0.9-4.9 0-3.4 0.9-4.9 1.9-3 5.7-3 1.7 0 7.6 1.6 6.7 1.9 8.1 2.1c3 0.4 7.3 0.7 8.1 0.7q0.6 0 0.6 0.4 0 0.2-0.1 0.4zm-11.7 2.2q0 0 0 0 0 0 0 0zm-13.9-3.3q-1.7 0-3 1.1-1.2 1-1.2 1.9 0.7 1.8 2 5.6 0.6 0.1 1.2 0.1 2.8 0 8.6-2.6l6.3-2.8q-10.6-3.3-13.9-3.3z"/><path class="a" d="m245 232.8q4-2.4 10.5-5.3 5.8-2.5 6.4-2.5 0.1 0 0.1 0.1 0 0.2-0.4 0.8-0.3 0.6-0.5 0.7-1.9 0.7-7.3 3.3-6.1 2.9-9.6 5 0.2-0.9 0.8-2.1z"/><path fill-rule="evenodd" class="a" d="m222.8 187.5q-1.1 2.6-1.1 4.2 0 1.9 1 1.9 0.5 0 1.3-1.4 0-0.2 0.1-0.2 0 0 0.1-0.1 0 0.1 0 0.1 0 0 0 0.1 0 0 0 0.1-0.6 3.3-2 3.3-1.4 0-1.4-2.4 0-1.2 0.6-3.2 0.7-1.9 0.7-2 0-0.3-1-0.8-1.7 2.3-4.8 4.2-2.1 1.3-4.2 2.2-4.1 1.6-4.7 1.8-0.5 0.3-0.7 0.3-0.1 0-0.1-0.1 0-0.2 0.6-0.6 3.5-1.9 6.9-3.9 4.7-2.7 6.2-4.3-2-1.1-2-2.3 0-1.4 1.3-2.6 1-0.9 1.8-0.9 0.2 0 0.4 0 0.7 0.3 0.7 1.6 0 1.2-0.5 2.7 1.1 0.6 1.1 1.3 0 0.3-0.3 1zm-1.6-2.7q0.1-0.4 0.1-0.9 0-0.2 0-0.4-0.2-0.7-0.7-0.7-0.2 0-0.6 0.2-0.5 0.2-0.5 0.4 0 0.6 1.7 1.4z"/><path class="a" d="m247.6 182.8q0 0.3-0.2 0.8-0.2 0.6-0.4 0.6-0.2 0-0.5-0.5-0.4-0.5-0.8-0.5-0.9 0-1.7 4.3-0.3 1.8-0.7 3.9-0.3 0.5-0.5 0.5-0.2 0-0.2-0.5 0-0.7-0.8-3.5-0.9-2.8-1.2-2.8-0.3 0-0.3 0.1-0.1 0.2-0.4 0.2-0.4 0-1-0.6-0.6-0.5-0.6-0.9 0-0.1 0.5-1 0.5-0.8 0.6-0.8 1.3 0 2.3 1.5 0.9 1.4 1.3 3.8 0.1 0.3 0.1 0.3 0 0.1 0 0.1 0 0 0.1-0.1 0 0 0.1-0.3 0.2-1.4 1-4.2 0.8-2.1 1.8-2.1 0.5 0 1 0.7 0.5 0.6 0.5 1zm-4.8 9.8q-1 2.3-4.1 4.2-3.8 2.4-10.2 4.8-0.6 0.2-0.8 0.2 0 0 0-0.1 0-0.1 0.6-0.5 1.1-0.7 5.6-3.2 3.8-2.1 5.2-3.1 1.3-0.9 3.1-2.6 0.8-1 1-1 0 0 0 0 0 0.2-0.4 1.3z"/><path class="a" d="m253.1 194.5q0 1.1-0.9 2.6-1 1.5-2.5 2.6-0.6 0.4-0.7 0.4 0 0 0 0 0-0.1 0.5-0.7 2.5-2.7 2.5-3.6c0-0.6-0.3-0.9-0.8-0.9q-0.5 0-0.8 0.3-0.3 0.1-0.4 0.2 0-0.1-0.1-0.1 0-0.1 0.1-0.5 0.4-1.9 1.9-1.9 1.2 0 1.2 1.6z"/><path class="a" d="m230.6 189.6q0-1.4 1.3-3.2 1.1-1.7 2.1-2.3 0.1 0 0.1 0 0.1 0 0.1 0 0 0.1 0 0.1 0 0.2-0.1 0.3-0.8 0.7-1.5 1.9-0.9 1.3-0.9 1.9 0.4-0.3 0.9-0.3 1.2 0 1.2 1 0 0.9-0.7 1.5-0.5 0.6-1.1 0.6-1.4 0-1.4-1.5z"/><path fill-rule="evenodd" class="a" d="m257.8 235.1q0.1-0.2 0.3-0.2 0.1 0.1 0.2 0.2 0.8-1.8 1.8-1.8 0.7 0 1.3 0.8 0.5 0.8 0.5 1.9 0 0.4 0 0.8-0.4 1.7-1.2 1.7-0.6 0-1.7-0.7-0.9-0.6-1.3-1.2-0.6 1.9-1.6 3-1.7 2-4.6 3.5-2.2 1.2-2.8 1.2-0.1 0-2.6 0.6-2.6 0.7-3.3 0.8-0.6 0.1-0.9 0.1-0.1 0-0.1 0 0-0.1 1-0.6 2.8-1 8.4-3.7 4.1-2.2 5.2-3.9 0.5-1 1.4-2.5zm3.3 1.3q-0.1-0.3-0.5-0.8-0.4-0.4-0.7-0.4-0.6 0-0.9 0.5 0.6 0.5 1.7 1 0.2 0.1 0.3 0.1 0 0 0.1 0 0-0.1 0-0.2 0-0.1 0-0.2z"/><path class="a" d="m251.6 224.4q0.1-0.1 0.2-0.2 0 0 0 0 0 0 0 0.1 0 0 0 0 0 0.1 0 0.2-0.1 1.2-0.7 2.3-0.6 1-1.2 1h-0.1q-0.7 0-1.1-0.8-0.3-0.7-0.3-1.8 0-0.2 0-0.3 0.1-1.6 1.3-4.8 1-2.7 1.7-3.9 0.4-0.5 0.5-0.6 0 0.1 0 0.1 0 0.1-0.2 0.5-1.7 3.8-2.2 6.1-0.2 0.9-0.2 1.6 0 1.1 0.4 1.6 0.3 0.3 0.5 0.3 0.1 0 0.1 0 0.7-0.1 1.3-1.4z"/><path class="a" d="m262 186.6q-0.4-4.2-1.1-6.7-0.5-2.1-0.9-2.1-0.6 0-1.9 3.7-0.3 0.6-0.5 0.6-0.2 0-0.1-0.7 0.3-2.8 1.3-5.1 1-2.5 2-2.5 2.1 0 3.2 10.3c0.3 2.7 0.6 7.2 0.8 15.4q0.3 11.7 0.5 12.7 0.5 3.2 2 4.1 0.8 0.5 2.5 0.5v4.5q-2.4 0-3.7-1-2-1.4-2.6-5.2-0.4-2.4-0.8-14c-0.3-8.4-0.5-12.6-0.7-14.5z"/><path fill-rule="evenodd" class="a" d="m241.7 232q0 7.2-6.1 13-5.9 5.6-13.1 5.6-13 0-13-14.4 0-6.7 2.9-12.8-1.1-0.6-1.1-0.9 0-0.2 0.5-0.2 0.5 0 1.2 0.1 1.1-2.1 3.6-5.2 2-2.3 2.8-3-1.7-1.7-3.4-2.8-1.6-1-2.4-1-0.9 0-2.6 1.1-0.3 0.2-0.5 0.2-0.4 0-0.1-0.8l1-3.4q0.3-1 3.5-2 3.3-1.1 6.2-1.1 3.4 0 6.4 0.8 2.5 0.8 3.8 1.7 1 0.8 0.6 1.6-0.4 1.4-1.3 3-1.8 0.8-5.5 2.7 0.5 0.6 1.5 1 0 0.1 0 0.1c0.5 0.3 3.2 1.7 8.7 1.7v4c-8.4 0-13.2-4-13.7-4.5h-0.1c0 0-5.1 4.2-6.6 6.2q4.1 0.5 13.5 0.9 7.1 0.2 8.9 1 1.9 0.8 3.1 2.7 1.3 2 1.3 4.7zm-19.3-20.2q1.1-0.7 3.4-1.9-1.1-0.8-4.2-0.8-1.2 0-2.3 0.2 2 1.3 3.1 2.5zm15.5 27.4q2.6-2.9 2.6-5 0-1.8-1.3-3.4-1.4-1.8-3.8-2.5-2.1-0.6-7-0.8-5.2-0.1-7-0.5-4.3-1-7.3-2.7-3.1 6.2-3.1 11 0 10.9 12.2 10.9 4 0 8.3-2.2 3.8-1.9 6.4-4.8z"/><path fill-rule="evenodd" class="a" d="m260.1 210.9q0 2.2-0.7 3.9-0.7 1.6-1.5 1.6-4.1 0-8.2-3.2-0.4 1.2-1 2.2-0.4 0.9-1 1.7 0 0 0 0c-0.4 0.5-3.9 3.9-12.4 3.9v-4c2.3-0.1 7.6-0.6 9.7-1.3 1.7-0.6 2.7-1.7 3.4-2.9q0.2-0.4 1.4-3 0.5-1.2 1-1.3 0.7-1.4 1.9-2.6 1.8-1.8 3.5-1.8 2 0 3.1 2.5 0.8 1.9 0.8 4.3zm-2.7 0.7q0-0.3-0.1-0.7-0.3-0.9-1.1-1.7-0.8-0.7-1.6-0.7-1.2 0-1.9 0.5-0.5 0.3-0.5 0.7 1.8 1.4 4.3 2.1 0.3 0.1 0.6 0.1 0.3 0 0.3-0.3z"/><path class="a" d="m291.7 184.2q-0.5 1.1-0.7 1.3-0.1 0-9.4 3.5-9.7 3.6-11.8 4.7-1.6 0.8-1.6 1.1 0 0.2 0.5 0.5 0.5 0.3 1.7 0.7 0.2 0 0.2 0.8 0 0.7 0 0.8-0.1 0.1-0.2 0.1-0.1 0-0.3 0-2.7-0.5-2.7-1.9 0-0.8 0.7-2 0.8-1.3 1.6-1.8 0.7-0.4 11-4.2 5.3-1.9 10.6-3.9 0.3-0.1 0.4-0.1 0 0 0 0 0.1 0 0.1 0.1-0.1 0.1-0.1 0.3z"/><path class="a" d="m274.2 230.8q0 0 0-0.1 0-0.1 0-0.2l1.5-2.9q0.1-0.3 0.2-0.3 0.3 0 2 1.2 1.7 1.2 1.7 1.4 0 0.7-1.5 3.1-0.2 0.3-0.3 0.3 0 0-0.1-0.1-1.7-1.3-3.5-2.4z"/><path class="a" d="m291.2 228.1q-2.2 2-5.7 2-1.1 0-1.8-0.6-0.7-0.5-0.7-1.4 0-1.6 1.3-3.1 1.3-1.4 2.6-2.7 0.1-0.2 0.1-0.2 0-0.2-0.3-0.3-1-0.3-2-0.3-0.6 0-1.4 0.3-0.1 0.1-0.1 0.1 0 0-0.1-0.1 0 0 0 0 0-0.1 0.1-0.2 0.4-1.1 0.9-1.4 0.5-0.5 1.7-0.5 2.6 0 2.6 1.3 0 1-1.7 2.7-1.1 1.3-2.3 2.5-0.5 0.7-0.5 1.1 0 1.1 2.4 1.1 2.2 0 4.7-0.8 0.5-0.1 0.7-0.1 0.1 0 0.1 0 0 0.1-0.6 0.6z"/><path class="a" d="m223.4 242.3q2.2 0 4.7-0.8 0.5-0.1 0.7-0.1 0 0 0 0 0 0.1-0.5 0.6-2.2 2-5.7 2-1.1 0-1.8-0.6-0.7-0.6-0.7-1.4 0-2.4 2-4.9-1.8-0.5-1.8-1.9 0-1.1 1.4-2.6 1.4-1.6 2.3-1.6 0.2 0 0.4 0.4 0.3 0.3 0.3 0.7 0 0.2-0.5 0.9-0.4 0.5-0.5 0.5 0 0 0 0-0.2-0.7-0.8-0.7-0.3 0-0.8 0.5-0.4 0.6-0.4 0.9 0.5 1 1.9 1 0.4 0 1.4-0.9 0.5-0.5 1.1-1 0.1-0.1 0.1-0.1 0.1 0.1 0.1 0.4 0 1-0.7 2.1-3 2-4.4 4.6-0.3 0.5-0.3 0.8 0 1.2 2.5 1.2z"/><path class="a" d="m246.8 225.8l0.1-0.5h1l0.3 0.6"/><path class="a" d="m247.7 223.8v0.4q0.2 0.2 0.2 0.4 0 0.2-0.2 0.4l0.1 0.3h-0.7v-0.3q-0.2-0.2-0.2-0.4 0-0.2 0.2-0.3v-0.5c-0.1-0.1-0.2-0.3-0.2-0.5 0-0.1 0.1-0.3 0.3-0.4v-0.4c-0.2-0.1-0.3-0.2-0.3-0.4 0-0.3 0.2-0.5 0.4-0.5l0.1-1.2h0.1v1.2c0.2 0 0.4 0.2 0.4 0.5 0 0.1-0.1 0.3-0.3 0.4v0.4c0.2 0.1 0.3 0.3 0.3 0.4q0 0.3-0.2 0.5z"/><path fill-rule="evenodd" class="a" d="m186.9 189.9q-2.2-1.2-2.1-2.4-0.1-1.2 1.1-2.5 1.1-1.3 2.2-1.3c0.8 0 1.1 0.6 1.1 1.8q0 1.2-0.5 2.8 1.1 0.6 1.4 1.1 0 0.7-1 2-0.3-0.5-1.3-1.1-3.3 4.6-13.7 8.3-0.6 0.2-0.7 0.2-0.1 0-0.1 0 0-0.2 0.6-0.6 0.6-0.4 6.8-3.9 4.2-2.3 6.2-4.4 0 0 0 0zm0.9-2.1q0 0 0 0 0 0 0 0 0 0 0 0zm0.2-0.8q0-0.3-0.1-0.5-0.1-0.8-0.7-0.8-0.2 0-0.7 0.2-0.4 0.3-0.4 0.5 0 0.6 1.7 1.4 0.2-0.4 0.2-0.8z"/><path class="a" d="m176.8 230.1q0 0.4-0.2 0.9-0.2 0.5-0.6 0.5-0.6 0-0.9-0.8-0.2 1.1-1 1.1-0.3 0-0.5-0.3-0.3-0.3-0.3-0.9v-0.9q0-0.1-0.1-0.1-0.1-0.1-0.1-0.2 0-0.3 0.2-0.6 0.2-0.3 0.3-0.3 0.2 0 0.2 0.6 0 0.3-0.1 0.5 0 0.2 0 0.4 0 0.3 0.1 0.6 0.2 0.3 0.4 0.3 0.3 0 0.5-0.3 0.3-0.2 0.3-0.6 0-0.2-0.1-0.7-0.2-0.5-0.2-0.6 0-0.1 0.1-0.3 0.2-0.2 0.2-0.2 0.1 0 0.3 0.6 0.1 0.7 0.1 1 0 0.9 0.7 0.9 0.3 0 0.4-0.3-0.6-1.1-0.6-1.6 0-0.3 0.1-0.6 0.1-0.2 0.2-0.2 0 0 0 0.2 0.1 0.3 0.1 0.5 0.1 0 0.3 0.8 0.2 0.4 0.2 0.6z"/><path class="a" d="m171.3 227.4q2.9-1.1 6.3-2.3 0.1-0.1 0.1-0.1 0.1 0 0.1 0 0 0.1 0 0.1 0 0-0.1 0.1-0.1 0.5-0.3 0.6-2.7 1-6.5 2.5 0.2-0.4 0.4-0.9z"/><path fill-rule="evenodd" class="a" d="m150.8 212q2.2 1.6 2.2 3.2 0 0.1 0 0.2-0.2 1.9-0.6 2.4-1 1.4-2.5 1.4-1.5 0-1.5-1.7 0-0.5 0.1-1 0.3-1.3 1.6-4.6 0.9-2.4 0.9-4.9 0-1.1-0.1-2.5-0.2-2.1-1.4-3.6-0.1-0.1-1.9-2-0.2-0.1-0.2-0.3 0-0.1 0.1-0.2l0.7-1.2q0 0 0.1 0 0.1 0 0.2 0 2.7 2.2 3.3 6.4 0.2 1.1 0.2 2.2 0 3.8-1.2 6.2m1.5 4q0-0.7-2.3-2-0.8 1.4-0.8 2.5 0 0.7 0.7 0.7 0.6 0 1.3-0.4 0.8-0.4 1.1-0.8z"/><path class="a" d="m195.2 211.2q0.8 0 1.5 1 0.7 1 1 2.7 0 0.1 0 0.2 0 0 0.1 0 0 0 0 0 0-0.1 0-0.2 0.2-1 0.7-3 0.6-1.4 1.3-1.4 0.3 0 0.7 0.5 0.3 0.4 0.3 0.7 0 0.2-0.1 0.5-0.1 0.4-0.3 0.4-0.1 0-0.4-0.3-0.2-0.3-0.5-0.3-0.6 0-1.1 2.9-0.3 1.2-0.5 1.8-0.2 0.3-0.4 0.3-0.1 0-0.1-0.3 0-0.5-0.6-2-0.6-1.5-0.8-1.5-0.2 0-0.2 0.1-0.1 0.2-0.3 0.2-0.3 0-0.7-0.4-0.4-0.4-0.4-0.6 0-0.2 0.3-0.7 0.4-0.6 0.5-0.6z"/></g></svg>